<?xml version="1.0" standalone="no"?>
<!DOCTYPE svg PUBLIC "-//W3C//DTD SVG 20010904//EN"
 "http://www.w3.org/TR/2001/REC-SVG-20010904/DTD/svg10.dtd">
<svg version="1.0" xmlns="http://www.w3.org/2000/svg"
 width="1080.000000pt" height="1080.000000pt" viewBox="0 0 1080.000000 1080.000000"
 preserveAspectRatio="xMidYMid meet">
<metadata>
Created by potrace 1.14, written by Peter Selinger 2001-2017
</metadata>
<g transform="translate(0.000000,1080.000000) scale(0.100000,-0.100000)"
fill="#000000" stroke="none">
<path d="M1851 6698 c5 -18 49 -171 98 -340 l89 -308 -215 0 -215 0 74 -140
c52 -102 77 -139 87 -135 36 14 172 26 225 20 97 -11 208 -51 273 -99 131 -96
246 -263 473 -688 47 -87 92 -167 101 -179 15 -20 16 5 22 327 12 606 50 1034
127 1415 17 80 30 148 30 152 0 4 -265 7 -589 7 l-589 0 9 -32z"/>
<path d="M4985 6490 c-291 -131 -534 -240 -538 -242 -5 -2 20 -33 55 -69 154
-157 283 -405 508 -976 57 -145 107 -263 110 -263 4 0 20 18 36 41 38 55 123
115 203 142 l66 22 965 3 965 3 75 -76 74 -75 -974 0 c-595 0 -1002 -4 -1045
-10 -136 -20 -208 -76 -267 -210 -28 -63 -43 -78 -84 -85 -41 -8 -84 22 -116
81 -14 27 -83 193 -153 368 -148 373 -246 590 -335 739 -160 269 -277 324
-384 178 -72 -97 -134 -277 -232 -666 -59 -234 -185 -797 -179 -803 2 -2 63
41 135 97 71 56 133 101 136 101 3 0 349 -153 769 -340 l762 -341 1524 4
c1515 3 1525 3 1617 24 279 65 487 177 673 364 251 252 381 566 381 919 -1
341 -118 644 -341 882 l-69 73 -29 -26 c-109 -102 -547 -489 -552 -489 -3 0
-94 87 -200 194 l-194 195 35 43 c20 24 106 124 191 223 l154 180 -56 14 c-47
12 -297 15 -1606 17 l-1550 2 -530 -238z m3501 -501 l192 -192 -254 -296 -254
-296 -107 0 c-98 0 -113 -3 -165 -28 -32 -16 -93 -62 -136 -102 l-79 -74 -36
37 -37 37 233 232 c151 150 242 233 259 237 15 3 35 18 45 32 15 23 15 29 2
52 -30 53 -95 44 -115 -16 -7 -23 -85 -108 -240 -263 l-229 -229 -39 40 -40
39 77 80 c103 105 132 166 130 276 0 44 -2 88 -4 98 -3 13 75 85 296 272 165
140 302 255 305 255 3 0 91 -86 196 -191z"/>
<path d="M3152 6578 c-80 -380 -131 -936 -133 -1453 -1 -405 -20 -506 -102
-532 -31 -11 -44 -10 -71 1 -70 29 -101 76 -315 471 -168 309 -297 482 -396
532 -63 32 -140 46 -221 41 -41 -3 -76 -7 -79 -10 -3 -2 22 -56 55 -119 53
-103 58 -117 46 -135 -19 -27 -316 -561 -316 -568 0 -3 92 -6 203 -6 112 0
206 -2 209 -5 3 -3 -39 -157 -92 -343 l-98 -337 541 -3 c298 -1 544 1 548 5
22 26 206 1554 258 2143 36 413 35 397 12 409 -11 6 -21 11 -24 11 -2 0 -13
-46 -25 -102z"/>
<path d="M3366 6493 c-3 -21 -8 -78 -11 -128 -14 -199 -98 -994 -150 -1410 -3
-22 15 37 40 130 62 231 335 1283 335 1288 0 5 -197 157 -203 157 -3 0 -8 -17
-11 -37z"/>
<path d="M3835 6148 c-2 -13 -16 -95 -30 -183 -14 -88 -55 -340 -91 -560 -35
-220 -64 -407 -63 -415 0 -8 24 86 54 210 93 392 179 689 239 825 l24 53 -59
46 c-32 25 -61 46 -64 46 -2 0 -7 -10 -10 -22z"/>
<path d="M3411 5092 c-129 -499 -236 -916 -239 -926 -5 -18 89 49 185 131 l33
28 55 370 c46 300 104 667 201 1268 4 20 5 37 3 37 -2 0 -109 -408 -238 -908z"/>
<path d="M3641 4954 c0 -11 3 -14 6 -6 3 7 2 16 -1 19 -3 4 -6 -2 -5 -13z"/>
</g>
</svg>
