<?xml version="1.0" encoding="UTF-8" standalone="no"?>
<svg
   xmlns:dc="http://purl.org/dc/elements/1.1/"
   xmlns:cc="http://creativecommons.org/ns#"
   xmlns:rdf="http://www.w3.org/1999/02/22-rdf-syntax-ns#"
   xmlns:svg="http://www.w3.org/2000/svg"
   xmlns="http://www.w3.org/2000/svg"
   version="1.1"
   id="svg2"
   xml:space="preserve"
   width="338.85333"
   height="194.42667"
   viewBox="0 0 338.85333 194.42667"><metadata
     id="metadata8"><rdf:RDF><cc:Work
         rdf:about=""><dc:format>image/svg+xml</dc:format><dc:type
           rdf:resource="http://purl.org/dc/dcmitype/StillImage" /><dc:title></dc:title></cc:Work></rdf:RDF></metadata><defs
     id="defs6" /><g
     id="g10"
     transform="matrix(1.3333333,0,0,-1.3333333,0,194.42667)"><g
       id="g12"
       transform="scale(0.1)"><path
         d="M 616.906,40.1289 C 616.906,17.9609 598.949,0 576.789,0 554.625,0 536.66,17.9609 536.66,40.1289 c 0,22.1602 17.965,40.1211 40.129,40.1211 22.16,0 40.117,-17.9609 40.117,-40.1211"
         style="fill:#82b623;fill-opacity:1;fill-rule:nonzero;stroke:none"
         id="path14" /><path
         d="m 698.84,53.7813 c -13.047,-8.7032 -26.078,-13.3711 -38.449,-13.3711 -2.661,0 -3.672,0.6601 -3.672,3.3281 v 28.4101 c 0,4.0118 3.672,3.3516 12.375,5.3399 9.691,2.3515 16.371,11.043 16.371,21.7305 V 268.68 c 0,2.332 0.996,3.34 3.344,3.34 h 31.418 c 2,0 3.339,-1.008 3.339,-3.34 V 102.23 c 0,-19.7183 -9.351,-38.1011 -24.726,-48.4487"
         style="fill:#82b623;fill-opacity:1;fill-rule:nonzero;stroke:none"
         id="path16" /><path
         d="m 830.52,221.219 c 0,9.019 -11.036,19.051 -23.075,19.051 -12.687,0 -23.382,-10.032 -23.382,-19.391 0,-2 1.007,-3 3.332,-3 h 39.785 c 2.34,0 3.34,1 3.34,3.34 z m 35.761,-35.43 h -79.543 c -2.343,0 -3.347,-1 -3.347,-3.34 v -7.679 c 0,-13.391 10.023,-24.079 24.054,-24.079 9.703,0 15.711,5.348 21.399,16.047 2.011,4.012 3.344,6.352 5.015,6.352 0.668,0 1,0 1.668,-0.34 l 29.082,-14.371 c 1.34,-0.66 2.008,-1.668 2.008,-2.668 0,-3.68 -5.019,-12.699 -16.383,-24.742 -9.687,-10.028 -24.054,-15.367 -42.789,-15.367 -37.757,0 -62.484,23.726 -62.484,59.168 v 41.429 c 0,10.371 3.336,21.731 9.355,30.762 12.032,18.039 31.414,28.398 53.129,28.398 21.399,0 41.114,-10.359 52.825,-28.398 6.011,-9.031 9.347,-20.391 9.347,-30.762 v -27.07 c 0,-2.34 -1,-3.34 -3.336,-3.34"
         style="fill:#82b623;fill-opacity:1;fill-rule:nonzero;stroke:none"
         id="path18" /><path
         d="m 1008.65,118.941 h -28.404 c -4.683,0 -2.68,6.688 -5.687,6.688 -4,0 -12.032,-6.688 -27.071,-6.688 -34.754,0 -59.832,24.071 -59.832,59.168 v 90.571 c 0,2.332 1.008,3.34 3.36,3.34 h 31.746 c 2,0 3.343,-1.008 3.343,-3.34 v -90.571 c 0,-13.711 10.024,-24.078 23.731,-24.078 13.699,0 24.055,10.699 24.055,24.078 v 90.571 c 0,2.332 1.007,3.34 3.351,3.34 h 31.408 c 2.01,0 3.35,-1.008 3.35,-3.34 V 122.289 c 0,-2.348 -1.01,-3.348 -3.35,-3.348"
         style="fill:#82b623;fill-opacity:1;fill-rule:nonzero;stroke:none"
         id="path20" /><path
         d="m 1159.39,118.941 h -31.75 c -2.35,0 -3.34,1 -3.34,3.348 v 90.902 c 0,13.379 -10.03,23.731 -23.73,23.731 -14.04,0 -24.07,-10.352 -24.07,-23.731 v -90.902 c 0,-2.348 -1.01,-3.348 -3.34,-3.348 h -31.42 c -2.33,0 -3.33,1 -3.33,3.348 V 268.68 c 0,2.332 1,3.34 3.33,3.34 h 28.41 c 5.02,0 3.01,-6.692 5.68,-6.692 4.01,0 12.04,6.692 27.41,6.692 34.09,0 59.49,-24.071 59.49,-58.829 v -90.902 c 0,-2.348 -1,-3.348 -3.34,-3.348"
         style="fill:#82b623;fill-opacity:1;fill-rule:nonzero;stroke:none"
         id="path22" /><path
         d="m 1269.68,221.219 c 0,9.019 -11.03,19.051 -23.07,19.051 -12.69,0 -23.39,-10.032 -23.39,-19.391 0,-2 1.01,-3 3.34,-3 h 39.78 c 2.33,0 3.34,1 3.34,3.34 z m 30.36,-35.43 h -79.54 c -2.34,0 -3.34,-1 -3.34,-3.34 v -7.679 c 0,-13.391 10.02,-24.079 24.06,-24.079 9.7,0 15.71,5.348 21.39,16.047 2.01,4.012 3.34,6.352 5.02,6.352 0.66,0 1,0 1.67,-0.34 l 29.07,-14.371 c 1.35,-0.66 2.01,-1.668 2.01,-2.668 0,-3.68 -5.01,-12.699 -16.38,-24.742 -9.69,-10.028 -24.06,-15.367 -42.78,-15.367 -37.76,0 -62.49,23.726 -62.49,59.168 v 41.429 c 0,10.371 3.33,21.731 9.35,30.762 12.03,18.039 31.41,28.398 53.14,28.398 21.39,0 41.11,-10.359 52.81,-28.398 6.01,-9.031 9.35,-20.391 9.35,-30.762 v -27.07 c 0,-2.34 -0.99,-3.34 -3.34,-3.34"
         style="fill:#82b623;fill-opacity:1;fill-rule:nonzero;stroke:none"
         id="path24" /><path
         d="m 1420.71,264 c 12.37,-9.031 19.73,-23.398 19.73,-27.41 0,-1 -0.69,-2.012 -2.01,-2.668 l -27.42,-13.371 c -0.66,-0.34 -1.33,-0.34 -1.66,-0.34 -1.33,0 -1.67,0.668 -2.68,2.008 -7.01,10.359 -10.69,19.062 -24.39,19.062 h -9.69 c -12.04,0 -18.39,-4.359 -18.39,-12.711 0,-13.711 18.39,-10.691 45.79,-18.05 27.07,-7.348 39.76,-19.711 39.76,-41.782 0,-31.41 -22.39,-53.136 -57.47,-53.136 h -9.69 c -18.73,0 -33.1,5.339 -43.45,16.378 -10.37,10.692 -14.37,20.051 -14.37,23.059 0,1 0.66,1.672 1.99,2.34 l 27.41,13.371 c 0.66,0.328 1.01,0.328 1.67,0.328 1,0 1.68,-1 2.67,-2.34 6.7,-11.019 11.04,-19.047 24.08,-19.047 h 9.69 c 12.02,0 19.38,6.02 19.38,14.368 0,13.371 -18.72,10.363 -46.12,17.382 -26.74,6.688 -39.1,19.387 -39.1,42.118 0,30.41 23.05,51.8 56.15,51.8 h 9.69 c 15.7,0 28.07,-3.679 38.43,-11.359"
         style="fill:#82b623;fill-opacity:1;fill-rule:nonzero;stroke:none"
         id="path26" /><path
         d="m 1599.53,120.941 c -0.66,-1.332 -1.68,-2 -3.01,-2 h -24.07 c -0.99,0.34 -1.99,1 -3,2 l -59.16,146.399 c -0.34,0.66 -0.67,1.34 -0.67,2.012 0,1.66 1.34,2.668 3.68,2.668 h 33.74 c 1.02,-0.34 2.02,-1.008 3.02,-2.008 15.71,-41.102 27.75,-71.852 35.1,-91.903 23.06,61.493 30.07,93.911 36.76,93.911 h 34.09 c 2.35,0 3.68,-1.008 3.68,-2.668 0,-0.672 -0.34,-1.352 -0.67,-2.012 l -59.49,-146.399"
         style="fill:#82b623;fill-opacity:1;fill-rule:nonzero;stroke:none"
         id="path28" /><path
         d="m 1743.91,221.219 c 0,9.019 -11.03,19.051 -23.07,19.051 -12.69,0 -23.39,-10.032 -23.39,-19.391 0,-2 1,-3 3.35,-3 h 39.76 c 2.35,0 3.35,1 3.35,3.34 z m 35.75,-35.43 h -79.53 c -2.34,0 -3.35,-1 -3.35,-3.34 v -7.679 c 0,-13.391 10.03,-24.079 24.06,-24.079 9.71,0 15.72,5.348 21.39,16.047 2.01,4.012 3.36,6.352 5.02,6.352 0.68,0 1,0 1.68,-0.34 l 29.08,-14.371 c 1.32,-0.66 2,-1.668 2,-2.668 0,-3.68 -5.02,-12.699 -16.38,-24.742 -9.69,-10.028 -24.07,-15.367 -42.79,-15.367 -37.76,0 -62.48,23.726 -62.48,59.168 v 41.429 c 0,10.371 3.34,21.731 9.34,30.762 12.04,18.039 31.41,28.398 53.14,28.398 21.39,0 41.12,-10.359 52.81,-28.398 6.01,-9.031 9.36,-20.391 9.36,-30.762 v -27.07 c 0,-2.34 -0.99,-3.34 -3.35,-3.34"
         style="fill:#82b623;fill-opacity:1;fill-rule:nonzero;stroke:none"
         id="path30" /><path
         d="m 1880.89,229.91 c -4.34,0 -11.36,6.68 -20.73,6.68 -13.04,0 -23.05,-10.36 -23.05,-23.399 v -90.902 c 0,-2.348 -1.01,-3.348 -3.35,-3.348 h -31.41 c -2.36,0 -3.35,1 -3.35,3.348 V 268.68 c 0,2.332 0.99,3.34 3.35,3.34 h 28.4 c 2.35,0 3.34,-0.668 3.34,-3.008 v -4.684 c 0,-2 1.01,-3.008 3.02,-3.34 l 1.99,1.012 c 8.7,6.68 16.73,10.02 25.42,10.02 11.68,0 18.71,-2.668 18.71,-6.02 v -32.422 c 0,-2.34 -1,-3.668 -2.34,-3.668"
         style="fill:#82b623;fill-opacity:1;fill-rule:nonzero;stroke:none"
         id="path32" /><path
         d="m 1980.28,115.602 c -14.37,0 -32.75,7.347 -43.78,18.046 -10.68,10.364 -16.04,24.403 -16.04,41.122 v 58.808 c 0,2.344 -0.99,3.344 -3.34,3.344 h -17.38 c -2.33,0 -3.33,1.008 -3.33,3.348 l 0.66,17.71 39.43,41.782 2.35,1 h 16.38 c 2.33,0 3.34,-1 3.34,-3.34 v -22.063 c 0,-2.339 0.99,-3.339 3.33,-3.339 h 22.07 c 2.34,0 3.35,-1.008 3.35,-3.34 v -28.41 c 0,-2.34 -1.01,-3.348 -3.35,-3.348 h -22.07 c -2.34,0 -3.33,-1 -3.33,-3.344 V 174.77 c 0,-10.372 7.34,-19.731 15.37,-21.399 9.36,-2.012 13.38,-1.68 13.38,-5.68 v -28.75 c 0,-3 -2.02,-3.339 -7.04,-3.339"
         style="fill:#82b623;fill-opacity:1;fill-rule:nonzero;stroke:none"
         id="path34" /><path
         d="m 2130.49,221.219 c 0,9.019 -11.03,19.051 -23.06,19.051 -12.7,0 -23.41,-10.032 -23.41,-19.391 0,-2 1.02,-3 3.35,-3 h 39.78 c 2.33,0 3.34,1 3.34,3.34 z m 35.76,-35.43 h -79.54 c -2.34,0 -3.35,-1 -3.35,-3.34 v -7.679 c 0,-13.391 10.03,-24.079 24.07,-24.079 9.68,0 15.7,5.348 21.39,16.047 2,4.012 3.34,6.352 5,6.352 0.68,0 1.01,0 1.68,-0.34 l 29.08,-14.371 c 1.34,-0.66 1.99,-1.668 1.99,-2.668 0,-3.68 -5,-12.699 -16.37,-24.742 -9.68,-10.028 -24.06,-15.367 -42.77,-15.367 -37.77,0 -62.51,23.726 -62.51,59.168 v 41.429 c 0,10.371 3.34,21.731 9.37,30.762 12.02,18.039 31.4,28.398 53.14,28.398 21.39,0 41.11,-10.359 52.8,-28.398 6.02,-9.031 9.36,-20.391 9.36,-30.762 v -27.07 c 0,-2.34 -1,-3.34 -3.34,-3.34"
         style="fill:#82b623;fill-opacity:1;fill-rule:nonzero;stroke:none"
         id="path36" /><path
         d="m 2027.9,195.359 c 0,-11.48 -9.31,-20.789 -20.79,-20.789 -11.48,0 -20.78,9.309 -20.78,20.789 0,11.469 9.3,20.782 20.78,20.782 11.48,0 20.79,-9.313 20.79,-20.782"
         style="fill:#82b623;fill-opacity:1;fill-rule:nonzero;stroke:none"
         id="path38" /><path
         d="m 2231.87,195.359 c 0,-11.48 -9.31,-20.789 -20.78,-20.789 -11.48,0 -20.79,9.309 -20.79,20.789 0,11.469 9.31,20.782 20.79,20.782 11.47,0 20.78,-9.313 20.78,-20.782"
         style="fill:#82b623;fill-opacity:1;fill-rule:nonzero;stroke:none"
         id="path40" /><path
         d="m 2521.72,264 c 12.37,-9.031 19.72,-23.398 19.72,-27.41 0,-1 -0.68,-2.012 -2,-2.668 l -27.42,-13.371 c -0.66,-0.34 -1.32,-0.34 -1.66,-0.34 -1.34,0 -1.68,0.668 -2.69,2.008 -7.01,10.359 -10.69,19.062 -24.39,19.062 h -9.69 c -12.03,0 -18.38,-4.359 -18.38,-12.711 0,-13.711 18.38,-10.691 45.78,-18.05 27.08,-7.348 39.77,-19.711 39.77,-41.782 0,-31.41 -22.39,-53.136 -57.48,-53.136 h -9.69 c -18.72,0 -33.09,5.339 -43.44,16.378 -10.37,10.692 -14.38,20.051 -14.38,23.059 0,1 0.67,1.672 2.01,2.34 l 27.4,13.371 c 0.67,0.328 1.01,0.328 1.67,0.328 1,0 1.67,-1 2.67,-2.34 6.69,-11.019 11.03,-19.047 24.07,-19.047 h 9.69 c 12.03,0 19.39,6.02 19.39,14.368 0,13.371 -18.71,10.363 -46.12,17.382 -26.74,6.688 -39.11,19.387 -39.11,42.118 0,30.41 23.06,51.8 56.15,51.8 h 9.69 c 15.71,0 28.08,-3.679 38.44,-11.359"
         style="fill:#82b623;fill-opacity:1;fill-rule:nonzero;stroke:none"
         id="path42" /><path
         d="m 2231.87,195.359 c 0,-11.48 -9.31,-20.789 -20.78,-20.789 -11.48,0 -20.79,9.309 -20.79,20.789 0,11.469 9.31,20.782 20.79,20.782 11.47,0 20.78,-9.313 20.78,-20.782"
         style="fill:#82b623;fill-opacity:1;fill-rule:nonzero;stroke:none"
         id="path44" /><path
         d="m 2397.07,195.359 c 0,-11.48 -9.3,-20.789 -20.78,-20.789 -11.48,0 -20.79,9.309 -20.79,20.789 0,11.469 9.31,20.782 20.79,20.782 11.48,0 20.78,-9.313 20.78,-20.782"
         style="fill:#82b623;fill-opacity:1;fill-rule:nonzero;stroke:none"
         id="path46" /><path
         d="m 2364.23,121.238 c 0,-1.789 -1.11,-2.66 -3.32,-2.66 h -37.14 l -3,1.66 -24.88,40.133 c -1.11,1.539 -2.11,2.32 -2.97,2.32 -0.89,0 -1.89,-0.781 -3,-2.32 l -24.86,-40.133 -2.99,-1.66 h -31.85 c -2.43,0 -3.65,0.871 -3.65,2.66 0,0.211 0.22,0.981 0.68,2.321 l 40.13,68.972 c 0.22,0.891 0.33,1.879 0.33,3 v 0.981 l -45.1,68.988 c -0.46,0.66 -0.68,1.449 -0.68,2.32 0,1.77 1.11,2.66 3.32,2.66 h 37.14 l 2.67,-1.66 25.18,-40.461 c 0.9,-1.328 1.79,-1.988 2.68,-1.988 0.86,0 1.64,0.66 2.32,1.988 l 25.53,40.461 2.65,1.66 h 37.49 c 2.43,0 3.64,-0.89 3.64,-2.66 0,-0.871 -0.32,-1.761 -1,-2.64 l -45.42,-68.989 v -2.98 l 45.42,-69.652 c 0.43,-0.68 0.68,-1.45 0.68,-2.321"
         style="fill:#82b623;fill-opacity:1;fill-rule:nonzero;stroke:none"
         id="path48" /><path
         d="m 873.195,447.852 c 130.495,9.269 415.985,-48.704 439.735,-49.332 21.58,0.519 21.86,16.929 19.04,31.902 -11.62,61.574 -21.95,123.82 -40.68,183.16 -32.48,102.91 -61.37,207.641 -111.86,303.574 -57.57,109.384 -115.92,218.534 -192.856,316.964 -6.695,8.56 -13.336,17.67 -28.082,10.63 -4.297,-2.39 -8.832,-4.9 -11.398,-9 -17.016,-27.1 -54.426,-79.97 -54.426,-79.97 0,0 -224.613,-300.94 -395.703,-402.358 -36.832,-21.828 -26.16,-45.785 -10.953,-65.77 31.211,-41.031 53.539,-85.945 73.625,-132.664 15.41,-35.84 25.801,-72.648 31.937,-111.347 4.063,-25.61 15.516,-46.891 52.293,-35.243 75.223,23.821 152.426,30.321 229.328,39.454"
         style="fill:#82b623;fill-opacity:1;fill-rule:nonzero;stroke:none"
         id="path50" /><path
         d="m 1559.08,1055.71 c -13.9,-0.16 -24.98,-4.78 -36.06,-8.64 -23.57,-8.23 -44.97,-20.95 -66.02,-34.15 -5.43,-3.41 -8.36,-3.98 -12.7,1.76 -10.27,13.61 -10.49,16.62 2.46,27.22 22.02,18.02 46.78,31.8 71.61,45.38 14.08,7.7 28.59,14.62 42.81,22.08 25.82,13.55 53.53,19.6 82.4,21.59 33.85,2.33 67.66,3.56 101.31,-2.02 16.97,-2.82 33.9,-5.93 49.99,-12.4 13,-5.23 14.08,-8.39 6.22,-19.71 -25.57,-36.78 -55.69,-69.03 -94.05,-92.79 -28.63,-17.737 -58.92,-31.913 -90.74,-43.272 -44.1,-15.742 -89.22,-27.477 -134.71,-38.153 -4.82,-1.128 -7.39,-0.398 -8.42,4.274 -2,9.105 -3.82,18.25 -5.71,27.383 -1.07,5.203 2.65,6.562 6.38,7.742 15.3,4.848 30.63,9.574 45.93,14.437 12.84,4.082 25.37,8.938 36.58,16.61 2.55,1.75 5.4,3.398 6.88,7.839 -15.64,-5.706 -30.49,-11.132 -45.35,-16.542 -15.18,-5.528 -30.68,-9.66 -46.96,-9.567 -12.34,0.071 -18.21,7.039 -15.65,17.418 0.82,3.301 3.12,4.684 5.34,6.528 26.38,21.883 56.66,36.913 87.89,50.333 3.1,1.33 6.71,1.88 10.57,6.65"
         style="fill:#e10078;fill-opacity:1;fill-rule:nonzero;stroke:none"
         id="path52" /><path
         d="m 1562.34,802.73 c -0.77,0.387 -1.54,0.778 -2.31,1.165 -9.69,5.648 -65.81,23.886 -83.74,27.898 -5.82,1.301 -8.32,3.625 -6.64,10.309 4.09,16.253 8.08,19.226 25.16,17.921 43.2,-3.3 85.42,-11.921 127.5,-21.91 50.38,-11.957 91.37,-38.453 125.92,-76.453 19.29,-21.215 37.21,-43.387 53.65,-66.824 10.23,-14.586 7.2,-24.992 -9.53,-28.539 -45.97,-9.738 -92.14,-15.102 -138.82,-4.16 -23.57,5.519 -44.75,16.914 -66.71,26.343 -20.09,8.622 -40.68,16.114 -60.1,26.278 -27.24,14.25 -51.85,32.437 -76.38,50.754 -1.88,1.398 -3.77,2.765 -5.68,4.117 -10.41,7.351 -10.83,8.769 -4.97,17 6.76,9.488 12.17,10.492 21.18,3.789 6.79,-5.063 58.45,-30.289 59.22,-27.727 0.35,1.184 -4.84,4.282 -5.6,4.661 -7.83,4.882 -42.41,28.101 -51.6,35.16 -3.84,2.953 -7.83,6.394 -4.83,12.492 2.71,5.484 7.2,6.152 12.47,5.527 21.71,-2.578 42.71,-8.336 63.63,-14.41 7.12,-1.039 43.2,-15.859 49.2,-17.816 -7.59,3.992 -13.18,10.824 -21.02,14.425"
         style="fill:#e10078;fill-opacity:1;fill-rule:nonzero;stroke:none"
         id="path54" /><path
         d="m 1197.4,1108.01 c 0.81,-6.43 0.02,-12 -7.17,-15.13 -7.3,-3.18 -11.78,0.37 -15.86,5.33 -16.71,20.31 -32.39,41.31 -43.68,65.26 -1.37,2.9 -1.9,8.93 -5.39,7.55 -4.38,-1.73 -2.01,-7.26 -0.69,-10.93 6.38,-17.68 15.73,-33.83 25.86,-49.58 4.1,-6.37 8.78,-12.43 11.32,-19.69 1.94,-5.55 3.06,-11.58 -3.18,-14.68 -6.64,-3.31 -13.23,-9.68 -21.7,-3.55 -12.5,9.06 -21.45,21.39 -30.59,33.44 -20.36,26.84 -37.07,55.84 -50.76,86.66 -15.62,35.16 -19.28,71.83 -14.69,109.56 4.62,38.02 12.7,75.27 26.69,111.07 4.67,11.95 9.95,13.83 20.36,7.09 28.55,-18.47 54.81,-39.53 75.65,-66.75 15.66,-20.45 24.86,-43.95 33.24,-68.03 12.29,-35.32 23.64,-70.86 30.74,-107.63 3.88,-20.02 6.82,-40.22 7.55,-60.64 0.33,-9.23 -7.03,-14.8 -19.41,-15.05 -8.8,-0.17 -10.25,6.05 -10.51,13.05 -0.11,2.88 -0.41,5.76 -0.63,8.64 -0.92,9.26 -3.38,18.09 -7.29,26.53 -0.76,1.65 -1.93,3.54 -3.66,3.22 -2.09,-0.39 2.08,-31.97 3.8,-45.74"
         style="fill:#e10078;fill-opacity:1;fill-rule:nonzero;stroke:none"
         id="path56" /><path
         d="m 1365.2,618.648 c 0.35,7.879 -2.45,14.403 -4.53,20.817 -5.23,16.16 -8.22,32.844 -12.42,49.234 -0.79,3.074 -0.74,6.367 -1.04,9.567 -0.45,4.839 1.03,8.382 5.89,10.515 4.81,2.11 8.31,1 11.7,-2.664 12,-12.941 21.14,-27.91 29.9,-43.039 14.49,-25.012 28.88,-50.098 40.89,-76.445 0.68,-1.492 1.95,-2.711 3.47,-3.746 -6.86,31.265 -19.77,59.968 -34.84,87.941 -8.22,15.238 -18.46,29.059 -27.87,43.449 -3.24,4.961 -2.38,7.871 1.8,10.996 1.87,1.395 3.56,3.028 5.38,4.497 9.76,7.89 13.73,7.441 21.53,-2.477 20.21,-25.695 40.49,-51.48 54.96,-80.914 18.42,-37.484 37.18,-75.078 43.33,-117.094 4.62,-31.601 0.46,-62.855 -5.86,-93.855 -1.21,-5.961 -1.85,-12.071 -4.32,-17.809 -4.31,-10.043 -10.75,-13.449 -20.88,-9.93 -19.59,6.809 -36.75,18.02 -52.14,31.559 -20.68,18.199 -38.2,39.352 -52.32,63 -18.14,30.387 -33.64,61.891 -43.91,96.133 -7.49,24.969 -14.34,49.879 -17.98,75.672 -1.87,13.261 2.59,21.593 13.35,23.761 6.87,1.387 12.52,0.332 14.84,-8.035 5.25,-18.855 10.57,-37.718 19.17,-55.433 2.81,-5.782 5.69,-11.442 11.9,-15.7"
         style="fill:#e10078;fill-opacity:1;fill-rule:nonzero;stroke:none"
         id="path58" /><path
         d="m 1400.39,1152.07 c -1.01,-1.83 -33.45,-45.71 -37.97,-50.65 -4.01,-4.39 -8.92,-6.87 -14.87,-4.44 -6.06,2.47 -7.27,8.01 -7.38,13.76 -0.23,12.23 4.22,23.52 8.15,34.72 5.98,17.04 20.94,54.75 21.65,57.88 -3.65,-2.8 -35.49,-61.73 -43.45,-90.55 -1.63,-5.93 -4.43,-8.55 -10.51,-7.39 -8.02,1.54 -16.06,2.97 -24.07,4.58 -6.08,1.22 -8.88,4.94 -8.46,11.26 0.62,9.38 2.97,18.41 5.57,27.33 17.19,59.13 48.33,110.71 84.41,160.1 26.44,36.2 63.2,56.18 102.67,73.01 12.41,5.28 18.46,0.54 19.18,-13.13 1.24,-23.59 2.77,-47.16 0.95,-70.79 -2.27,-29.46 -10.63,-57.31 -22.11,-84.32 -19.79,-46.56 -45.12,-90.26 -69.65,-134.38 -3.44,-6.17 -7.1,-8.1 -13.24,-4.13 -1.21,0.78 -2.7,1.11 -4.01,1.77 -19.25,9.73 -20.46,15.66 -6.44,32.31 6.05,7.18 10.63,15.24 14.84,23.56 2.98,5.9 7.02,11.25 9.07,17.62 0.5,1.56 1.68,3.67 -0.31,4.53 -1.76,0.76 -2.75,-1.58 -4.02,-2.65"
         style="fill:#e10078;fill-opacity:1;fill-rule:nonzero;stroke:none"
         id="path60" /><path
         d="m 1666.81,580.223 c 9.22,-20.895 16.58,-42.418 21.6,-64.715 3.81,-16.879 -0.78,-23.34 -18.02,-22.985 -24.13,0.5 -47.23,7.047 -69.84,14.887 -25.2,8.735 -48.66,20.977 -70.91,35.844 -12.86,8.59 -21.55,19.418 -25.59,34.152 -11.33,41.336 -31.95,78.149 -54.67,114.082 -10.98,17.375 -22.93,33.746 -37.86,47.883 -5.93,5.606 -5.64,11.078 0.33,16.453 1.09,0.981 2.02,2.121 3.1,3.106 9.32,8.484 10.57,8.992 20.44,0.945 35.43,-28.914 75.99,-48.809 117.29,-67.43 19.43,-8.761 38.83,-17.609 58.48,-25.859 11.5,-4.832 16.78,-15.234 23.07,-24.434 13.22,-19.328 23.67,-40.257 32.58,-61.929"
         style="fill:#e10078;fill-opacity:1;fill-rule:nonzero;stroke:none"
         id="path62" /><path
         d="m 1687.17,976.008 c 18.18,-0.496 34.92,-6.844 51.48,-13.309 25.85,-10.101 51.74,-20.176 76.72,-32.355 2.88,-1.406 5.76,-2.903 8.37,-4.739 9.2,-6.476 9.73,-13.644 0.76,-20.433 -39.04,-29.567 -80.09,-55.582 -127.53,-69.777 -16.61,-4.969 -32.88,-2.758 -48.92,3.23 -26.54,9.914 -53.39,18.891 -81.22,24.535 -26.92,5.465 -54.16,8.664 -81.57,10.078 -5.53,0.285 -8.08,2.032 -8.91,7.106 1.7,4.554 6.02,5.23 9.84,6.066 24.56,5.387 48.78,12.707 74.2,13.602 -18.56,2.148 -36.64,-4.016 -55.11,-3.086 0,0 -13.5,-2.938 -20.46,-3.219 -4.28,-0.176 -8.37,-0.738 -9.49,4.922 -1.44,7.262 0.85,12.5 6.78,13.953 8.49,2.078 17.26,2.625 25.82,4.523 39.26,8.719 77.96,19.348 115.83,32.981 9.03,3.254 18.26,5.867 27.2,9.527 11.06,4.532 20.43,12.391 32.04,15.723 1.38,0.394 1.86,0.648 4.17,0.672"
         style="fill:#e10078;fill-opacity:1;fill-rule:nonzero;stroke:none"
         id="path64" /><path
         d="m 1262.52,1257.23 c -2.65,-23.64 -1.11,-47.19 1.28,-70.75 2.19,-21.63 9.74,-42.69 6.07,-64.96 -1.61,-9.75 -2.01,-10.45 -14.77,-10.72 -8.2,-0.18 -8.59,4.91 -8.87,10.92 -1.54,32.89 -8.91,64.72 -18.39,96.05 -9.04,29.89 -18.7,59.59 -28.52,89.24 -3.21,9.7 0.88,18.01 3.93,26.22 15.74,42.37 35.7,82.49 65.59,116.97 9.25,10.68 15.06,10.74 23.84,-0.16 25.8,-32.06 44.05,-68.02 55.07,-107.64 2.51,-8.99 4.52,-18.11 6.71,-27.19 1.61,-6.72 0.15,-12.64 -4.4,-17.94 -26.9,-31.29 -46.87,-66.8 -63.53,-104.34 -1.69,-3.8 -2.74,-10.25 -7.2,-9.86 -4.94,0.42 -11.63,90.63 -11.01,96.21 -4.23,-7.21 -5.04,-14.63 -5.8,-22.05"
         style="fill:#e10078;fill-opacity:1;fill-rule:nonzero;stroke:none"
         id="path66" /><path
         d="m 1470.89,1116.94 c -17.06,-15.58 -32.72,-32.47 -47.87,-49.88 -2.64,-3.02 -4.82,-10.12 -10.6,-5.9 -4.92,3.59 0.02,7.87 1.98,11.35 26.31,46.86 50.87,94.59 71.76,144.13 3.74,8.88 6.9,17.99 10.23,27.03 4.48,12.18 14.57,18.47 25.19,24.28 32.19,17.63 66.63,29.7 101.38,40.96 14.94,4.84 21.29,0.07 22.38,-15.57 1.35,-19.41 -4.72,-37.45 -9.4,-55.81 -6.36,-24.95 -14.53,-49.26 -24.86,-72.84 -11.34,-25.88 -31.65,-40.59 -58.2,-48.94 -23.74,-7.46 -45.48,-19.73 -66.39,-33.12 -17.42,-11.15 -34.29,-23.15 -51.39,-34.81 -2.38,-1.62 -4.78,-4.4 -7.66,-1.71 -3.35,3.13 -0.12,5.92 1.49,8.44 11.49,18.01 25.08,34.36 39.71,49.87 13.28,14.35 28.65,26.59 41.24,41.21 -15.08,-6.38 -27.27,-17.22 -38.99,-28.69"
         style="fill:#e10078;fill-opacity:1;fill-rule:nonzero;stroke:none"
         id="path68" /><path
         d="m 572.523,234.5 c -28.503,44.031 -59.367,86.449 -91.668,127.73 24.833,9.079 48.903,18.008 70.094,26.079 15.59,5.953 16.715,16.332 15.008,30.171 -12.93,104.77 -54.973,196.946 -117.73,280.883 -13.762,18.407 -28.743,11.821 -45.446,4.793 -38.246,-16.093 -76.668,-31.82 -114.816,-48.129 l -0.027,0.039 L 57.0195,569.926 0,552.281 208.871,251.539 l 152.004,62.07 c 18.727,-24.597 37.496,-49.16 56.281,-73.711 18.746,-24.5 37.524,-48.968 56.157,-73.546 14.695,-19.391 41.558,-18.313 71.074,-0.403 35.554,21.582 38.539,52.481 28.136,68.551"
         style="fill:#82b623;fill-opacity:1;fill-rule:nonzero;stroke:none"
         id="path70" /></g></g></svg>
