<svg version="1.1" id="Ebene_1" x="0px" y="0px" viewBox="0 0 251.05002 132.31" xml:space="preserve" sodipodi:docname="frieda-ngo-logo.svg" width="251.05" height="132.31" inkscape:version="1.1.2 (0a00cf5339, 2022-02-04)" xmlns:inkscape="http://www.inkscape.org/namespaces/inkscape" xmlns:sodipodi="http://sodipodi.sourceforge.net/DTD/sodipodi-0.dtd" xmlns:xlink="http://www.w3.org/1999/xlink" xmlns="http://www.w3.org/2000/svg" xmlns:svg="http://www.w3.org/2000/svg"><defs id="defs23"><rect id="SVGID_1_" x="4.0700002" y="4.3899999" width="251.05" height="132.32001"></rect></defs><sodipodi:namedview id="namedview21" pagecolor="#ffffff" bordercolor="#666666" borderopacity="1.0" inkscape:pageshadow="2" inkscape:pageopacity="0.0" inkscape:pagecheckerboard="0" showgrid="false" fit-margin-top="0" fit-margin-left="0" fit-margin-right="0" fit-margin-bottom="0" inkscape:zoom="4.3629884" inkscape:cx="123.08078" inkscape:cy="65.895201" inkscape:window-width="1920" inkscape:window-height="1031" inkscape:window-x="0" inkscape:window-y="25" inkscape:window-maximized="1" inkscape:current-layer="Ebene_1"></sodipodi:namedview>
	<style type="text/css" id="style2">
	.st0{clip-path:url(#SVGID_00000087402550776492600260000009526111045966210483_);fill:#E33E5D;}
</style>
	<g id="g18" transform="translate(-4.0700002,-4.39)">
	<defs id="defs5">
		<rect id="SVGID_1_" x="4.0700002" y="4.3899999" width="251.05" height="132.32001"></rect>
	</defs>
		<clipPath id="SVGID_00000120528440664910812550000002076216035788062374_">
		<use xlink:href="#SVGID_1_" style="overflow:visible" id="use7" x="0" y="0" width="100%" height="100%"></use>
	</clipPath>
		<path style="" d="m 91.37,128.95 c 1.14,0 1.82,0.57 2.33,1.35 v 3.12 c -0.51,0.78 -1.18,1.35 -2.33,1.35 -1.49,0 -2.55,-1.19 -2.55,-2.91 0,-1.71 1.07,-2.91 2.55,-2.91 m 2.33,-4.74 v 4.83 c -0.45,-0.55 -1.23,-1.08 -2.49,-1.08 -2.06,0 -3.48,1.65 -3.48,3.9 0,2.27 1.42,3.9 3.48,3.9 1.29,0 2.1,-0.57 2.55,-1.15 l 0.03,1 h 1 v -11.4 z m -7.46,0 c -1.46,0 -2.37,1.09 -2.37,2.59 v 1.31 H 82.5 v 0.97 h 1.37 v 6.52 h 1.09 v -6.52 h 2.1 v -0.97 h -2.1 v -1.37 c 0,-0.9 0.5,-1.55 1.32,-1.55 0.48,0 0.83,0.15 1.08,0.42 l 0.47,-0.85 c -0.39,-0.34 -0.93,-0.55 -1.59,-0.55 m -7.34,3.75 c -2.29,0 -3.69,1.65 -3.69,3.9 0,2.25 1.41,3.9 3.72,3.9 1.33,0 2.31,-0.61 2.99,-1.6 l -0.78,-0.6 c -0.42,0.63 -1.14,1.23 -2.21,1.23 -1.69,0 -2.62,-1.25 -2.62,-2.93 0,-1.67 0.92,-2.93 2.6,-2.93 1.08,0 1.77,0.6 2.19,1.23 l 0.76,-0.6 c -0.66,-0.99 -1.61,-1.6 -2.96,-1.6 m -11.39,0 c -1.62,0 -2.68,0.81 -2.68,2.19 0,1.16 0.73,1.71 2.52,2.13 1.23,0.27 1.79,0.57 1.79,1.29 0,0.83 -0.74,1.23 -1.76,1.23 -0.92,0 -1.68,-0.32 -2.28,-0.81 l -0.51,0.88 c 0.7,0.55 1.65,0.88 2.79,0.88 1.73,0 2.85,-0.9 2.85,-2.28 0,-1.12 -0.79,-1.77 -2.56,-2.19 -1.24,-0.29 -1.76,-0.52 -1.76,-1.23 0,-0.79 0.68,-1.12 1.58,-1.12 0.87,0 1.55,0.29 2.07,0.65 l 0.46,-0.87 c -0.64,-0.44 -1.52,-0.75 -2.51,-0.75 m -5.63,7.65 h 1.09 v -11.4 h -1.09 z m -5.64,-6.66 c 1.13,0 1.76,0.57 2.27,1.35 v 3.12 c -0.51,0.78 -1.14,1.35 -2.27,1.35 -1.47,0 -2.49,-1.19 -2.49,-2.91 0,-1.71 1.02,-2.91 2.49,-2.91 z m -0.16,-0.99 c -2.04,0 -3.42,1.65 -3.42,3.9 0,2.27 1.38,3.9 3.42,3.9 1.28,0 2.04,-0.57 2.49,-1.15 l 0.03,1 h 1 v -7.5 h -1 l -0.03,0.99 c -0.45,-0.57 -1.22,-1.14 -2.49,-1.14 m -7.74,0 c -1.28,0 -2.18,0.64 -2.76,1.45 -0.43,-0.9 -1.24,-1.45 -2.37,-1.45 -1.19,0 -2.01,0.58 -2.46,1.14 l -0.04,-0.99 h -0.99 v 7.5 h 1.08 v -5.31 c 0.57,-0.75 1.21,-1.29 2.16,-1.29 1.14,0 1.89,0.89 1.89,2.18 v 4.43 h 1.09 v -4.56 c 0,-0.23 -0.01,-0.46 -0.06,-0.69 0.58,-0.79 1.24,-1.35 2.22,-1.35 1.14,0 1.88,0.89 1.88,2.18 v 4.43 h 1.09 v -4.49 c 0,-1.91 -1.02,-3.18 -2.73,-3.18 m -13.64,0.96 c 1.41,0 2.24,0.99 2.3,2.42 h -4.74 c 0.07,-1.45 1.03,-2.42 2.44,-2.42 m 0,-0.96 c -2.1,0 -3.54,1.66 -3.54,3.91 0,2.25 1.39,3.88 3.73,3.88 1.36,0 2.34,-0.54 3.01,-1.42 l -0.73,-0.6 c -0.4,0.57 -1.19,1.07 -2.28,1.07 -1.64,0 -2.57,-0.98 -2.64,-2.55 h 5.82 v -0.45 c 0.01,-2.13 -1.18,-3.84 -3.37,-3.84 m -11.5,-3.75 v 11.4 h 1.09 v -5.29 c 0.57,-0.75 1.22,-1.31 2.22,-1.31 1.2,0 1.98,0.89 1.98,2.18 v 4.43 h 1.09 v -4.49 c 0,-1.89 -1.05,-3.16 -2.85,-3.16 -1.2,0 -1.94,0.52 -2.45,1.09 v -4.84 H 23.2 Z m -5.01,4.71 c 1.41,0 2.24,0.99 2.3,2.42 h -4.74 c 0.07,-1.45 1.03,-2.42 2.44,-2.42 m 0,-0.96 c -2.1,0 -3.54,1.66 -3.54,3.91 0,2.25 1.39,3.88 3.73,3.88 1.36,0 2.34,-0.54 3.01,-1.42 l -0.73,-0.6 c -0.4,0.57 -1.18,1.07 -2.28,1.07 -1.64,0 -2.57,-0.98 -2.64,-2.55 h 5.82 v -0.45 c 0,-2.13 -1.18,-3.84 -3.37,-3.84 m -14.12,8.35 0.88,0.39 5.46,-12.69 -0.89,-0.39 z" clip-path="url(#SVGID_00000120528440664910812550000002076216035788062374_)" id="path10" fill="#E33E5D"></path>
		<path style="" d="m 177.16,97.86 c -1.56,0 -2.6,0.76 -3.17,1.46 l -0.06,-1.27 h -1.25 v 9.5 h 1.37 v -6.71 c 0.72,-0.95 1.56,-1.65 2.81,-1.65 1.54,0 2.53,1.12 2.53,2.75 v 5.61 h 1.37 v -5.68 c -0.01,-2.4 -1.32,-4.01 -3.6,-4.01 m -11.4,1.25 c 1.98,0 3.4,1.58 3.4,3.7 0,2.13 -1.43,3.67 -3.4,3.67 -1.97,0 -3.4,-1.54 -3.4,-3.67 0,-2.12 1.42,-3.7 3.4,-3.7 m 0,-1.25 c -2.79,0 -4.79,2.11 -4.79,4.96 0,2.85 2,4.92 4.79,4.92 2.77,0 4.81,-2.07 4.81,-4.92 0,-2.85 -2.04,-4.96 -4.81,-4.96 m -8.28,9.69 h 1.37 v -9.5 h -1.37 z m 0.68,-13.59 c -0.57,0 -1.01,0.44 -1.01,1.01 0,0.57 0.44,0.99 1.01,0.99 0.55,0 0.99,-0.42 0.99,-0.99 0,-0.57 -0.44,-1.01 -0.99,-1.01 m -7.43,0.86 v 3.23 h -1.94 v 1.24 h 1.94 v 5.28 c 0,2.09 1.22,3.17 3.08,3.17 0.89,0 1.54,-0.21 1.96,-0.48 l -0.42,-1.14 c -0.32,0.17 -0.78,0.34 -1.48,0.34 -1.03,0 -1.77,-0.67 -1.77,-1.9 v -5.28 h 3.13 v -1.24 h -3.13 v -3.23 h -1.37 z m -7.86,4.29 c 1.42,0 2.22,0.72 2.87,1.71 v 3.95 c -0.65,0.99 -1.44,1.71 -2.87,1.71 -1.86,0 -3.15,-1.5 -3.15,-3.69 -0.01,-2.16 1.28,-3.68 3.15,-3.68 m -0.21,-1.25 c -2.58,0 -4.33,2.09 -4.33,4.94 0,2.87 1.75,4.94 4.33,4.94 1.62,0 2.58,-0.72 3.15,-1.46 l 0.04,1.27 h 1.27 v -9.5 h -1.27 l -0.04,1.25 c -0.57,-0.72 -1.54,-1.44 -3.15,-1.44 m -9.27,0 c -2.05,0 -3.4,1.03 -3.4,2.77 0,1.46 0.93,2.17 3.19,2.7 1.56,0.34 2.26,0.72 2.26,1.63 0,1.04 -0.93,1.56 -2.22,1.56 -1.16,0 -2.13,-0.4 -2.89,-1.03 l -0.65,1.12 c 0.89,0.7 2.09,1.12 3.53,1.12 2.18,0 3.61,-1.14 3.61,-2.89 0,-1.43 -1.01,-2.24 -3.25,-2.77 -1.58,-0.36 -2.22,-0.67 -2.22,-1.56 0,-1.01 0.85,-1.43 1.99,-1.43 1.1,0 1.96,0.36 2.62,0.82 l 0.59,-1.1 c -0.79,-0.54 -1.91,-0.94 -3.16,-0.94 m -7.13,9.69 h 1.37 v -9.5 h -1.37 z m 0.68,-13.59 c -0.57,0 -1.01,0.44 -1.01,1.01 0,0.57 0.44,0.99 1.01,0.99 0.55,0 0.99,-0.42 0.99,-0.99 0,-0.57 -0.43,-1.01 -0.99,-1.01 m -7.01,3.9 c -1.56,0 -2.6,0.76 -3.17,1.46 l -0.06,-1.27 h -1.25 v 9.5 h 1.37 v -6.71 c 0.72,-0.95 1.56,-1.65 2.81,-1.65 1.54,0 2.53,1.12 2.53,2.75 v 5.61 h 1.37 v -5.68 c 0,-2.4 -1.32,-4.01 -3.6,-4.01 m -11.59,1.25 c 1.43,0 2.22,0.72 2.87,1.71 v 3.95 c -0.65,0.99 -1.44,1.71 -2.87,1.71 -1.86,0 -3.15,-1.5 -3.15,-3.69 0,-2.16 1.29,-3.68 3.15,-3.68 m -0.2,-1.25 c -2.58,0 -4.33,2.09 -4.33,4.94 0,2.87 1.75,4.94 4.33,4.94 1.62,0 2.58,-0.72 3.15,-1.46 l 0.04,1.27 h 1.27 v -9.5 h -1.27 l -0.04,1.25 c -0.57,-0.72 -1.54,-1.44 -3.15,-1.44 m -10.8,1.25 c 1.44,0 2.3,0.72 2.94,1.71 v 3.95 c -0.65,0.99 -1.5,1.71 -2.94,1.71 -1.88,0 -3.23,-1.5 -3.23,-3.69 0,-2.16 1.35,-3.68 3.23,-3.68 m -0.21,-1.25 c -2.6,0 -4.41,2.09 -4.41,4.94 0,2.87 1.81,4.94 4.41,4.94 1.6,0 2.58,-0.67 3.15,-1.37 v 1.03 c 0,2.13 -1.27,3.46 -3.25,3.46 -1.42,0 -2.49,-0.65 -3.27,-1.6 l -0.93,0.89 c 0.97,1.18 2.34,1.96 4.22,1.96 2.77,0 4.62,-1.79 4.62,-4.73 v -9.33 h -1.27 l -0.04,1.25 c -0.57,-0.72 -1.59,-1.44 -3.23,-1.44 m -5.3,0 c -1.58,0 -2.6,0.82 -3.12,1.58 l -0.08,-1.39 h -1.25 v 9.5 h 1.37 v -6.63 c 0.76,-1.05 1.61,-1.67 2.94,-1.67 h 0.13 v -1.39 z m -11.36,1.25 c 1.98,0 3.4,1.58 3.4,3.7 0,2.13 -1.42,3.67 -3.4,3.67 -1.98,0 -3.4,-1.54 -3.4,-3.67 0,-2.12 1.43,-3.7 3.4,-3.7 m 0,-1.25 c -2.79,0 -4.79,2.11 -4.79,4.96 0,2.85 1.99,4.92 4.79,4.92 2.77,0 4.81,-2.07 4.81,-4.92 0,-2.85 -2.03,-4.96 -4.81,-4.96 m -9.73,0 c -2.05,0 -3.4,1.03 -3.4,2.77 0,1.46 0.93,2.17 3.19,2.7 1.56,0.34 2.26,0.72 2.26,1.63 0,1.04 -0.93,1.56 -2.22,1.56 -1.16,0 -2.13,-0.4 -2.89,-1.03 l -0.65,1.12 c 0.89,0.7 2.09,1.12 3.53,1.12 2.18,0 3.61,-1.14 3.61,-2.89 0,-1.43 -1.01,-2.24 -3.25,-2.77 -1.58,-0.36 -2.22,-0.67 -2.22,-1.56 0,-1.01 0.85,-1.43 1.99,-1.43 1.1,0 1.96,0.36 2.62,0.82 L 73.9,98.8 C 73.12,98.26 72,97.86 70.74,97.86 m -9.23,0 c -1.56,0 -2.6,0.76 -3.17,1.46 l -0.06,-1.27 h -1.25 v 9.5 h 1.37 v -6.71 c 0.72,-0.95 1.56,-1.65 2.81,-1.65 1.54,0 2.53,1.12 2.53,2.75 v 5.61 h 1.37 v -5.68 c -0.01,-2.4 -1.32,-4.01 -3.6,-4.01 m -10.83,1.21 c 1.79,0 2.83,1.25 2.91,3.06 h -6 c 0.09,-1.82 1.3,-3.06 3.09,-3.06 m 0,-1.21 c -2.66,0 -4.48,2.11 -4.48,4.96 0,2.85 1.77,4.92 4.73,4.92 1.73,0 2.96,-0.68 3.82,-1.81 l -0.93,-0.76 c -0.51,0.72 -1.5,1.35 -2.89,1.35 -2.07,0 -3.25,-1.24 -3.34,-3.23 h 7.37 v -0.57 c -0.01,-2.7 -1.51,-4.86 -4.28,-4.86 m -10.93,1.25 c 1.44,0 2.3,0.72 2.94,1.71 v 3.95 c -0.65,0.99 -1.5,1.71 -2.94,1.71 -1.88,0 -3.23,-1.5 -3.23,-3.69 0,-2.16 1.35,-3.68 3.23,-3.68 m 2.95,-6 v 6.12 c -0.57,-0.7 -1.56,-1.37 -3.15,-1.37 -2.6,0 -4.41,2.09 -4.41,4.94 0,2.87 1.81,4.94 4.41,4.94 1.63,0 2.66,-0.72 3.23,-1.46 l 0.04,1.27 h 1.27 V 93.11 Z m -13.36,5.96 c 1.79,0 2.83,1.25 2.91,3.06 h -6 c 0.09,-1.82 1.31,-3.06 3.09,-3.06 m 0,-1.21 c -2.66,0 -4.48,2.11 -4.48,4.96 0,2.85 1.77,4.92 4.73,4.92 1.73,0 2.96,-0.68 3.82,-1.81 l -0.93,-0.76 c -0.51,0.72 -1.5,1.35 -2.89,1.35 -2.07,0 -3.25,-1.24 -3.34,-3.23 h 7.37 v -0.57 c 0,-2.7 -1.5,-4.86 -4.28,-4.86 m -7.98,9.69 h 1.37 v -9.5 h -1.37 z m 0.69,-13.59 c -0.57,0 -1.01,0.44 -1.01,1.01 0,0.57 0.44,0.99 1.01,0.99 0.55,0 0.99,-0.42 0.99,-0.99 0,-0.57 -0.44,-1.01 -0.99,-1.01 m -2.38,3.9 c -1.58,0 -2.6,0.82 -3.12,1.58 l -0.08,-1.39 h -1.25 v 9.5 h 1.37 v -6.63 c 0.76,-1.05 1.61,-1.67 2.94,-1.67 h 0.13 V 97.86 Z M 5.57,93.58 v 13.97 h 1.44 v -6.21 h 5.72 V 100 H 7.02 v -5.07 h 6.71 v -1.35 z" clip-path="url(#SVGID_00000120528440664910812550000002076216035788062374_)" id="path12" fill="#E33E5D"></path>
		<path style="" d="m 144.16,78.07 c 1.79,0 2.83,1.25 2.91,3.06 h -6 c 0.09,-1.82 1.3,-3.06 3.09,-3.06 m 0,-1.21 c -2.66,0 -4.48,2.11 -4.48,4.96 0,2.85 1.77,4.92 4.73,4.92 1.73,0 2.96,-0.68 3.82,-1.81 l -0.93,-0.76 c -0.51,0.72 -1.5,1.35 -2.89,1.35 -2.07,0 -3.25,-1.24 -3.34,-3.23 h 7.37 v -0.57 c -0.01,-2.7 -1.51,-4.86 -4.28,-4.86 m -14.58,-4.75 v 14.44 h 1.39 v -6.71 c 0.72,-0.95 1.54,-1.65 2.81,-1.65 1.52,0 2.51,1.12 2.51,2.75 v 5.6 h 1.39 v -5.68 c 0,-2.39 -1.33,-4.01 -3.61,-4.01 -1.52,0 -2.45,0.67 -3.1,1.39 V 72.1 h -1.39 z m -5.66,4.75 c -2.91,0 -4.67,2.09 -4.67,4.94 0,2.85 1.79,4.94 4.71,4.94 1.69,0 2.93,-0.78 3.78,-2.03 l -0.99,-0.76 c -0.53,0.8 -1.44,1.56 -2.79,1.56 -2.15,0 -3.33,-1.58 -3.33,-3.71 0,-2.11 1.16,-3.7 3.29,-3.7 1.37,0 2.24,0.76 2.77,1.56 l 0.97,-0.76 c -0.83,-1.26 -2.03,-2.04 -3.74,-2.04 m -9.61,0 c -2.05,0 -3.4,1.03 -3.4,2.77 0,1.46 0.93,2.17 3.19,2.7 1.56,0.34 2.26,0.72 2.26,1.63 0,1.05 -0.93,1.56 -2.22,1.56 -1.16,0 -2.13,-0.4 -2.89,-1.03 l -0.65,1.12 c 0.89,0.7 2.09,1.12 3.53,1.12 2.18,0 3.61,-1.14 3.61,-2.89 0,-1.42 -1.01,-2.24 -3.25,-2.77 -1.58,-0.36 -2.22,-0.66 -2.22,-1.56 0,-1.01 0.85,-1.42 1.99,-1.42 1.1,0 1.96,0.36 2.62,0.82 l 0.59,-1.1 c -0.79,-0.55 -1.91,-0.95 -3.16,-0.95 m -7.13,9.69 h 1.37 v -9.5 h -1.37 z m 0.69,-13.59 c -0.57,0 -1.01,0.44 -1.01,1.01 0,0.57 0.44,0.99 1.01,0.99 0.55,0 0.99,-0.42 0.99,-0.99 0,-0.57 -0.44,-1.01 -0.99,-1.01 m -7.43,0.86 v 3.23 H 98.5 v 1.24 h 1.94 v 5.28 c 0,2.09 1.22,3.17 3.08,3.17 0.89,0 1.54,-0.21 1.96,-0.47 l -0.42,-1.14 c -0.32,0.17 -0.78,0.34 -1.48,0.34 -1.03,0 -1.77,-0.66 -1.77,-1.9 v -5.28 h 3.13 v -1.24 h -3.13 v -3.23 z m -6.27,3.04 c -2.05,0 -3.4,1.03 -3.4,2.77 0,1.46 0.93,2.17 3.19,2.7 1.56,0.34 2.26,0.72 2.26,1.63 0,1.05 -0.93,1.56 -2.22,1.56 -1.16,0 -2.13,-0.4 -2.89,-1.03 l -0.65,1.12 c 0.89,0.7 2.09,1.12 3.53,1.12 2.18,0 3.61,-1.14 3.61,-2.89 0,-1.42 -1.01,-2.24 -3.25,-2.77 -1.58,-0.36 -2.22,-0.66 -2.22,-1.56 0,-1.01 0.86,-1.42 2,-1.42 1.1,0 1.96,0.36 2.62,0.82 l 0.59,-1.1 c -0.8,-0.55 -1.92,-0.95 -3.17,-0.95 m -7.13,9.69 h 1.37 v -9.5 h -1.37 z m 0.69,-13.59 c -0.57,0 -1.01,0.44 -1.01,1.01 0,0.57 0.44,0.99 1.01,0.99 0.55,0 0.99,-0.42 0.99,-0.99 0,-0.57 -0.44,-1.01 -0.99,-1.01 m -7.01,3.9 c -1.56,0 -2.6,0.76 -3.17,1.46 l -0.06,-1.27 h -1.25 v 9.5 h 1.37 v -6.71 c 0.72,-0.95 1.56,-1.65 2.81,-1.65 1.54,0 2.53,1.12 2.53,2.75 v 5.6 h 1.37 v -5.68 c -0.01,-2.39 -1.32,-4 -3.6,-4 m -8.7,9.69 h 1.37 v -9.5 H 72.02 Z M 72.7,72.96 c -0.57,0 -1.01,0.44 -1.01,1.01 0,0.57 0.44,0.99 1.01,0.99 0.55,0 0.99,-0.42 0.99,-0.99 0,-0.57 -0.44,-1.01 -0.99,-1.01 m -6.88,3.9 c -1.61,0 -2.75,0.82 -3.5,1.84 -0.55,-1.14 -1.58,-1.84 -3,-1.84 -1.5,0 -2.55,0.74 -3.12,1.44 L 56.14,77.05 H 54.9 v 9.5 h 1.37 v -6.73 c 0.72,-0.95 1.54,-1.63 2.74,-1.63 1.44,0 2.39,1.12 2.39,2.75 v 5.6 h 1.39 v -5.78 c 0,-0.29 -0.02,-0.59 -0.08,-0.87 0.74,-1.01 1.58,-1.71 2.81,-1.71 1.44,0 2.38,1.12 2.38,2.75 v 5.6 h 1.39 v -5.68 c -0.01,-2.38 -1.3,-3.99 -3.47,-3.99 m -17.27,1.21 c 1.79,0 2.83,1.25 2.91,3.06 h -6 c 0.09,-1.82 1.31,-3.06 3.09,-3.06 m 0,-1.21 c -2.66,0 -4.48,2.11 -4.48,4.96 0,2.85 1.77,4.92 4.73,4.92 1.73,0 2.96,-0.68 3.82,-1.81 l -0.93,-0.76 c -0.51,0.72 -1.5,1.35 -2.89,1.35 -2.07,0 -3.25,-1.24 -3.34,-3.23 h 7.37 v -0.57 c 0,-2.7 -1.5,-4.86 -4.28,-4.86 m -6.36,-4.75 c -1.84,0 -3,1.39 -3,3.29 v 1.65 h -1.73 v 1.24 h 1.73 v 8.26 h 1.39 v -8.26 h 2.66 v -1.24 h -2.66 v -1.73 c 0,-1.14 0.63,-1.96 1.67,-1.96 0.61,0 1.05,0.19 1.37,0.53 l 0.59,-1.08 c -0.5,-0.44 -1.19,-0.7 -2.02,-0.7 m -14.94,5.96 c 1.79,0 2.83,1.25 2.91,3.06 h -6 c 0.09,-1.82 1.31,-3.06 3.09,-3.06 m 0,-1.21 c -2.66,0 -4.48,2.11 -4.48,4.96 0,2.85 1.77,4.92 4.73,4.92 1.73,0 2.96,-0.68 3.82,-1.81 l -0.93,-0.76 c -0.51,0.72 -1.5,1.35 -2.89,1.35 -2.07,0 -3.25,-1.24 -3.34,-3.23 h 7.37 v -0.57 c 0,-2.7 -1.5,-4.86 -4.28,-4.86 m -7.98,9.69 h 1.37 v -9.5 h -1.37 z m 0.69,-13.59 c -0.57,0 -1.01,0.44 -1.01,1.01 0,0.57 0.44,0.99 1.01,0.99 0.55,0 0.99,-0.42 0.99,-0.99 0,-0.57 -0.44,-1.01 -0.99,-1.01 M 9.64,73.93 c 3.82,0 6,2.07 6,5.62 0,3.57 -2.15,5.64 -6,5.64 H 7.02 V 73.93 Z M 5.57,72.58 v 13.96 h 4.1 c 4.71,0 7.43,-2.58 7.43,-6.99 0,-4.41 -2.76,-6.97 -7.43,-6.97 z" clip-path="url(#SVGID_00000120528440664910812550000002076216035788062374_)" id="path14" fill="#E33E5D"></path>
		<path style="" d="m 222.95,41.32 6.8,-20.66 6.8,20.66 z m 19.08,16.46 h 13.1 L 236.37,5.47 h -13.22 l -19.07,52.32 h 13.41 l 2.16,-6.48 h 20.22 z m -64.91,-12.9 v -26.7 h 1.08 c 9.85,0 14.11,5.91 14.11,13.22 0,7.37 -4.26,13.48 -14.11,13.48 z m -12.78,12.9 h 12.27 c 20.02,0 28.54,-12.14 28.54,-26.38 0,-14.24 -8.52,-26.06 -28.54,-26.06 H 164.34 Z M 116.67,25.74 c 1.78,-5.47 7.12,-9.47 13.73,-9.47 6.61,0 12.01,3.94 13.67,9.47 z m 13.85,33 c 12.52,0 22.57,-7.88 25.87,-18.63 H 142.6 c -2.29,4.13 -6.87,6.93 -12.14,6.93 -7.69,0 -13.6,-5.15 -14.56,-11.76 h 41.45 c 2.48,-16.21 -10.3,-30.89 -26.83,-30.89 -15.77,0 -27.21,12.65 -27.21,27.14 0.01,14.56 11.45,27.21 27.21,27.21 M 83.86,57.78 H 96.7 V 5.53 H 83.86 Z M 53.35,34.96 v -17.1 h 2.54 c 5.85,0 8.96,3.56 8.96,8.52 0,4.9 -3.05,8.58 -8.96,8.58 z M 78.65,57.78 70.71,42.4 C 75.29,38.46 77.39,32.55 77.39,26.38 77.39,15.51 70.97,5.4 53.68,5.4 H 40.58 V 57.85 H 53.36 V 47.42 h 2.16 c 1.4,0 2.73,-0.06 3.94,-0.25 l 4.39,10.62 h 14.8 z m -73.74,0 H 17.69 V 37.7 H 32.18 V 26.83 H 17.69 V 17.48 H 33.65 V 5.34 H 4.91 Z" clip-path="url(#SVGID_00000120528440664910812550000002076216035788062374_)" id="path16" fill="#E33E5D"></path>
</g>
</svg>