<?xml version="1.0" encoding="UTF-8" standalone="no"?>
<svg
   xmlns:dc="http://purl.org/dc/elements/1.1/"
   xmlns:cc="http://creativecommons.org/ns#"
   xmlns:rdf="http://www.w3.org/1999/02/22-rdf-syntax-ns#"
   xmlns:svg="http://www.w3.org/2000/svg"
   xmlns="http://www.w3.org/2000/svg"
   version="1.1"
   id="svg2"
   xml:space="preserve"
   width="286.26666"
   height="194.32001"
   viewBox="0 0 286.26666 194.32001"><metadata
     id="metadata8"><rdf:RDF><cc:Work
         rdf:about=""><dc:format>image/svg+xml</dc:format><dc:type
           rdf:resource="http://purl.org/dc/dcmitype/StillImage" /><dc:title></dc:title></cc:Work></rdf:RDF></metadata><defs
     id="defs6" /><g
     id="g10"
     transform="matrix(1.3333333,0,0,-1.3333333,0,194.32)"><g
       id="g12"
       transform="scale(0.1)"><path
         d="m 758.652,95.3984 c 0,5.7036 -4.015,9.7226 -9.711,9.7226 h -42.863 c -5.699,0 -9.719,-4.019 -9.719,-9.7226 v -6.3593 c 0,-5.6875 4.02,-9.7071 9.719,-9.7071 h 42.863 c 5.356,0 9.711,4.3594 9.711,9.7071 z M 744.254,213.961 c 0,13.41 -10.047,23.777 -23.781,23.777 -14.063,0 -24.114,-10.367 -24.114,-23.777 v -3 c 0,-13.402 10.051,-24.121 24.114,-24.121 13.394,0 23.781,10.719 23.781,24.121 z m 4.687,-169.8008 h -42.863 c -28.812,0 -48.238,19.0898 -48.238,44.8789 v 6.3593 c 0,12.7306 5.699,19.4336 12.398,27.4606 3.352,3.692 5.688,5.36 5.688,7.379 0,2.012 -3.344,7.043 -3.344,16.071 0,9.711 4.684,16.07 4.684,18.773 0,0.988 -0.328,1.66 -1,2.328 -8.039,11.059 -18.426,21.102 -18.426,43.551 v 3 c 0,33.5 26.461,58.949 60.289,58.949 14.738,0 23.441,-6.691 27.465,-6.691 2.676,0 0.332,6.691 5.351,6.691 h 28.477 c 2.004,0 3.344,-1 3.344,-3.351 v -58.598 c 0,-35.172 -25.453,-59.281 -66.645,-59.281 h -5.023 c -1.676,-1.68 -2.344,-3.348 -2.344,-5.371 0,-2 1,-4.028 2.672,-6.02 h 37.515 c 28.801,0 48.227,-19.09 48.227,-44.8906 v -6.3593 c 0,-25.7891 -19.758,-44.8789 -48.227,-44.8789"
         style="fill:#82b623;fill-opacity:1;fill-rule:nonzero;stroke:none"
         id="path14" /><path
         d="M 843.055,119.52 H 811.57 c -2.343,0 -3.347,1.011 -3.347,3.339 v 146.7 c 0,2.351 1.004,3.351 3.347,3.351 h 31.485 c 2.011,0 3.343,-1 3.343,-3.351 v -146.7 c 0,-2.328 -1,-3.339 -3.343,-3.339"
         style="fill:#82b623;fill-opacity:1;fill-rule:nonzero;stroke:none"
         id="path16" /><path
         d="m 958.27,216.988 c 0,13.391 -10.387,24.121 -23.778,24.121 -14.07,0 -24.121,-10.73 -24.121,-24.121 v -41.539 c 0,-13.398 10.051,-24.117 24.121,-24.117 13.391,0 23.778,10.719 23.778,24.117 z M 934.492,116.18 c -37.851,0 -62.637,23.781 -62.637,59.269 v 41.539 c 0,35.5 24.786,59.274 62.637,59.274 37.504,0 62.289,-23.774 62.289,-59.274 v -41.539 c 0,-35.488 -24.785,-59.269 -62.289,-59.269"
         style="fill:#82b623;fill-opacity:1;fill-rule:nonzero;stroke:none"
         id="path18" /><path
         d="m 1089.89,121.531 c -0.67,-1.34 -1.67,-2.011 -3.01,-2.011 h -24.11 c -1.01,0.332 -2.02,1.011 -3.02,2.011 l -59.28,146.688 c -0.34,0.679 -0.673,1.34 -0.673,2.019 0,1.672 1.343,2.672 3.683,2.672 h 33.83 c 1,-0.328 2.01,-1 3.01,-2 15.75,-41.191 27.8,-72.019 35.17,-92.101 23.11,61.621 30.14,94.101 36.84,94.101 h 34.17 c 2.34,0 3.68,-1 3.68,-2.672 0,-0.679 -0.33,-1.34 -0.67,-2.019 l -59.62,-146.688"
         style="fill:#82b623;fill-opacity:1;fill-rule:nonzero;stroke:none"
         id="path20" /><path
         d="m 1199.11,178.809 c -5.02,0 -9.04,-4.36 -9.04,-9.379 v -5.032 c 0,-5.687 3.68,-9.707 9.04,-9.707 h 12.73 c 10.38,0 18.09,6.36 22.44,18.75 0,0 0,1.668 0.33,5.368 z m 70.34,-59.289 h -28.47 c -5.02,0 -2.68,6.371 -5.69,6.371 -3.69,0 -11.4,-6.371 -23.45,-6.371 h -12.73 c -27.8,0 -47.22,19.089 -47.22,44.878 v 1.672 c 0,26.461 19.42,44.891 47.22,44.891 h 32.16 c 2.01,0 3.34,1 3.34,3 v 0.668 l -0.33,4.019 c -1.34,13.743 -10.39,22.461 -24.12,22.461 -6.02,0 -13.39,-3.699 -18.42,-10.058 -4.68,-6.031 -6.02,-11.051 -8.7,-11.051 -0.67,0 -1.34,0.332 -2.02,0.672 l -27.45,14.398 c -1.34,0.668 -2.02,1.68 -2.02,2.34 0,2.68 4.69,13.399 16.08,24.449 10.05,9.723 24.45,14.403 42.53,14.403 37.85,0 62.63,-23.442 62.63,-58.942 v -94.461 c 0,-2.328 -1,-3.339 -3.34,-3.339"
         style="fill:#82b623;fill-opacity:1;fill-rule:nonzero;stroke:none"
         id="path22" /><path
         d="m 1424.18,119.52 h -31.82 c -2.35,0 -3.35,1.011 -3.35,3.339 v 91.102 c 0,13.41 -10.05,23.777 -23.78,23.777 -14.07,0 -24.12,-10.367 -24.12,-23.777 v -91.102 c 0,-2.328 -1,-3.339 -3.35,-3.339 h -31.48 c -2.34,0 -3.35,1.011 -3.35,3.339 v 146.7 c 0,2.351 1.01,3.351 3.35,3.351 h 28.47 c 5.03,0 3.01,-6.691 5.7,-6.691 4.01,0 12.05,6.691 27.46,6.691 34.16,0 59.61,-24.109 59.61,-58.949 v -91.102 c 0,-2.328 -1,-3.339 -3.34,-3.339"
         style="fill:#82b623;fill-opacity:1;fill-rule:nonzero;stroke:none"
         id="path24" /><path
         d="m 1492.84,119.52 h -31.5 c -2.33,0 -3.34,1.011 -3.34,3.339 v 146.7 c 0,2.351 1.01,3.351 3.34,3.351 h 31.5 c 2.01,0 3.34,-1 3.34,-3.351 v -146.7 c 0,-2.328 -1.02,-3.339 -3.34,-3.339"
         style="fill:#82b623;fill-opacity:1;fill-rule:nonzero;stroke:none"
         id="path26" /><path
         d="m 1645.22,121.531 c -0.66,-1.34 -1.68,-2.011 -3.01,-2.011 h -24.13 c -0.99,0.332 -2.01,1.011 -3,2.011 l -59.28,146.688 c -0.34,0.679 -0.67,1.34 -0.67,2.019 0,1.672 1.34,2.672 3.68,2.672 h 33.82 c 1.02,-0.328 2.01,-1 3.03,-2 15.73,-41.191 27.79,-72.019 35.14,-92.101 23.14,61.621 30.16,94.101 36.86,94.101 h 34.17 c 2.33,0 3.67,-1 3.67,-2.672 0,-0.679 -0.33,-1.34 -0.67,-2.019 l -59.61,-146.688"
         style="fill:#82b623;fill-opacity:1;fill-rule:nonzero;stroke:none"
         id="path28" /><path
         d="m 1793.93,222 c 0,9.051 -11.06,19.109 -23.12,19.109 -12.73,0 -23.45,-10.058 -23.45,-19.429 0,-2.032 1.01,-3.032 3.36,-3.032 h 39.84 c 2.35,0 3.37,1 3.37,3.352 z m 35.82,-35.488 h -79.7 c -2.35,0 -3.35,-1.024 -3.35,-3.352 v -7.711 c 0,-13.398 10.04,-24.117 24.11,-24.117 9.72,0 15.73,5.379 21.45,16.078 2.01,4.031 3.33,6.371 5.01,6.371 0.68,0 1.02,0 1.68,-0.34 l 29.14,-14.402 c 1.33,-0.668 2,-1.68 2,-2.68 0,-3.679 -5.03,-12.718 -16.41,-24.789 -9.71,-10.039 -24.11,-15.39 -42.87,-15.39 -37.84,0 -62.64,23.781 -62.64,59.269 v 41.539 c 0,10.383 3.37,21.762 9.38,30.801 12.08,18.09 31.5,28.473 53.26,28.473 21.45,0 41.2,-10.383 52.92,-28.473 6.02,-9.039 9.37,-20.418 9.37,-30.801 v -27.136 c 0,-2.34 -0.99,-3.34 -3.35,-3.34"
         style="fill:#82b623;fill-opacity:1;fill-rule:nonzero;stroke:none"
         id="path30" /><path
         d="m 1940.63,230.711 c -4.36,0 -11.4,6.699 -20.78,6.699 -13.06,0 -23.1,-10.379 -23.1,-23.449 v -91.102 c 0,-2.328 -1.02,-3.339 -3.34,-3.339 h -31.5 c -2.34,0 -3.34,1.011 -3.34,3.339 v 146.7 c 0,2.351 1,3.351 3.34,3.351 h 28.47 c 2.35,0 3.35,-0.66 3.35,-3.019 v -4.692 c 0,-2 1.01,-3 3.02,-3.34 l 2.01,1 c 8.71,6.7 16.74,10.051 25.44,10.051 11.74,0 18.78,-2.672 18.78,-6.019 v -32.493 c 0,-2.339 -1.01,-3.687 -2.35,-3.687"
         style="fill:#82b623;fill-opacity:1;fill-rule:nonzero;stroke:none"
         id="path32" /><path
         d="m 2040.18,178.809 c 0,-13.727 -10.04,-24.118 -23.78,-24.118 -14.05,0 -24.11,10.391 -24.11,24.118 v 35.152 c 0,13.41 10.06,23.777 24.11,23.777 13.74,0 23.78,-10.367 23.78,-23.777 z m -2.34,87.41 c -3.69,0 -12.39,6.691 -26.8,6.691 -32.15,0 -57.26,-25.121 -57.26,-58.949 v -35.152 c 0,-35.168 25.45,-59.289 60.28,-59.289 15.06,0 23.11,6.71 27.14,6.71 3.33,0 0.66,-6.71 5.69,-6.71 h 28.47 c 2.33,0 3.34,1.011 3.34,3.339 v 179.973 h -38.52 v -32.941 c 0,-2.34 -1.01,-3.672 -2.34,-3.672"
         style="fill:#82b623;fill-opacity:1;fill-rule:nonzero;stroke:none"
         id="path34" /><path
         d="m 2143.68,119.52 h -31.49 c -2.34,0 -3.35,1.011 -3.35,3.339 v 146.7 c 0,2.351 1.01,3.351 3.35,3.351 h 31.49 c 2.01,0 3.34,-1 3.34,-3.351 v -146.7 c 0,-2.328 -1,-3.339 -3.34,-3.339"
         style="fill:#82b623;fill-opacity:1;fill-rule:nonzero;stroke:none"
         id="path36" /><path
         d="M 617.602,40.1289 C 617.602,17.9609 599.648,0 577.488,0 555.32,0 537.359,17.9609 537.359,40.1289 c 0,22.1602 17.961,40.1211 40.129,40.1211 22.16,0 40.114,-17.9609 40.114,-40.1211"
         style="fill:#82b623;fill-opacity:1;fill-rule:nonzero;stroke:none"
         id="path38" /><path
         d="m 873.195,447.02 c 130.495,9.269 415.985,-48.7 439.735,-49.329 21.58,0.52 21.86,16.93 19.04,31.899 -11.62,61.578 -21.95,123.824 -40.68,183.16 -32.48,102.914 -61.37,207.641 -111.86,303.578 -57.57,109.382 -115.92,218.532 -192.856,316.962 -6.695,8.56 -13.336,17.67 -28.082,10.63 -4.297,-2.38 -8.832,-4.9 -11.398,-8.99 -17.016,-27.11 -54.426,-79.98 -54.426,-79.98 0,0 -224.613,-300.938 -395.703,-402.356 -36.832,-21.832 -26.16,-45.785 -10.953,-65.774 31.211,-41.027 53.539,-85.941 73.625,-132.66 15.41,-35.844 25.801,-72.652 31.937,-111.351 4.063,-25.61 15.516,-46.887 52.293,-35.239 75.223,23.821 152.426,30.321 229.328,39.45"
         style="fill:#82b623;fill-opacity:1;fill-rule:nonzero;stroke:none"
         id="path40" /><path
         d="m 1559.08,1054.88 c -13.9,-0.16 -24.98,-4.77 -36.06,-8.64 -23.57,-8.23 -44.97,-20.95 -66.02,-34.15 -5.43,-3.41 -8.36,-3.98 -12.7,1.76 -10.27,13.61 -10.49,16.63 2.46,27.22 22.02,18.02 46.78,31.8 71.61,45.38 14.08,7.7 28.59,14.62 42.81,22.08 25.82,13.55 53.53,19.6 82.4,21.59 33.85,2.33 67.66,3.56 101.31,-2.02 16.97,-2.81 33.9,-5.93 49.99,-12.4 13,-5.23 14.08,-8.38 6.22,-19.7 -25.57,-36.79 -55.69,-69.04 -94.05,-92.8 -28.63,-17.735 -58.92,-31.911 -90.74,-43.27 -44.1,-15.742 -89.22,-27.481 -134.71,-38.153 -4.82,-1.132 -7.39,-0.398 -8.42,4.27 -2,9.105 -3.82,18.254 -5.71,27.383 -1.07,5.203 2.65,6.566 6.38,7.746 15.3,4.844 30.63,9.57 45.93,14.433 12.84,4.086 25.37,8.938 36.58,16.61 2.55,1.75 5.4,3.398 6.88,7.841 -15.64,-5.708 -30.49,-11.13 -45.35,-16.54 -15.18,-5.528 -30.68,-9.665 -46.96,-9.571 -12.34,0.074 -18.21,7.043 -15.65,17.418 0.82,3.305 3.12,4.684 5.34,6.528 26.38,21.895 56.66,36.915 87.89,50.335 3.1,1.34 6.71,1.88 10.57,6.65"
         style="fill:#e10078;fill-opacity:1;fill-rule:nonzero;stroke:none"
         id="path42" /><path
         d="m 1562.34,801.902 c -0.77,0.387 -1.54,0.774 -2.31,1.161 -9.69,5.652 -65.81,23.886 -83.74,27.898 -5.82,1.301 -8.32,3.629 -6.64,10.309 4.09,16.253 8.08,19.23 25.16,17.921 43.2,-3.3 85.42,-11.918 127.5,-21.906 50.38,-11.957 91.37,-38.453 125.92,-76.453 19.29,-21.219 37.21,-43.391 53.65,-66.828 10.23,-14.582 7.2,-24.988 -9.53,-28.535 -45.97,-9.742 -92.14,-15.102 -138.82,-4.164 -23.57,5.523 -44.75,16.914 -66.71,26.343 -20.09,8.625 -40.68,16.118 -60.1,26.278 -27.24,14.254 -51.85,32.441 -76.38,50.754 -1.88,1.398 -3.77,2.769 -5.68,4.117 -10.41,7.351 -10.83,8.773 -4.97,17.004 6.76,9.488 12.17,10.492 21.18,3.789 6.79,-5.063 58.45,-30.289 59.22,-27.727 0.35,1.184 -4.84,4.282 -5.6,4.657 -7.83,4.882 -42.41,28.105 -51.6,35.164 -3.84,2.949 -7.83,6.39 -4.83,12.488 2.71,5.484 7.2,6.156 12.47,5.531 21.71,-2.578 42.71,-8.34 63.63,-14.41 7.12,-1.043 43.2,-15.863 49.2,-17.816 -7.59,3.988 -13.18,10.82 -21.02,14.425"
         style="fill:#e10078;fill-opacity:1;fill-rule:nonzero;stroke:none"
         id="path44" /><path
         d="m 1197.4,1107.18 c 0.81,-6.43 0.02,-12 -7.17,-15.13 -7.3,-3.18 -11.78,0.37 -15.86,5.33 -16.71,20.3 -32.39,41.3 -43.68,65.26 -1.37,2.9 -1.9,8.93 -5.39,7.55 -4.38,-1.73 -2.01,-7.26 -0.69,-10.93 6.38,-17.68 15.73,-33.83 25.86,-49.58 4.1,-6.37 8.78,-12.43 11.32,-19.69 1.94,-5.55 3.06,-11.58 -3.18,-14.68 -6.64,-3.31 -13.23,-9.68 -21.7,-3.54 -12.5,9.05 -21.45,21.38 -30.59,33.43 -20.36,26.84 -37.07,55.84 -50.76,86.66 -15.62,35.16 -19.28,71.84 -14.69,109.56 4.62,38.02 12.7,75.26 26.69,111.07 4.67,11.95 9.95,13.83 20.36,7.1 28.55,-18.48 54.81,-39.54 75.65,-66.76 15.66,-20.45 24.86,-43.95 33.24,-68.03 12.29,-35.32 23.64,-70.87 30.74,-107.63 3.88,-20.03 6.82,-40.22 7.55,-60.63 0.33,-9.24 -7.03,-14.81 -19.41,-15.06 -8.8,-0.17 -10.25,6.05 -10.51,13.05 -0.11,2.88 -0.41,5.76 -0.63,8.64 -0.92,9.26 -3.38,18.1 -7.29,26.53 -0.76,1.64 -1.93,3.53 -3.66,3.21 -2.09,-0.38 2.08,-31.96 3.8,-45.73"
         style="fill:#e10078;fill-opacity:1;fill-rule:nonzero;stroke:none"
         id="path46" /><path
         d="m 1365.2,617.816 c 0.35,7.883 -2.45,14.403 -4.53,20.821 -5.23,16.16 -8.22,32.84 -12.42,49.234 -0.79,3.074 -0.74,6.367 -1.04,9.563 -0.45,4.843 1.03,8.382 5.89,10.515 4.81,2.11 8.31,1 11.7,-2.66 12,-12.945 21.14,-27.91 29.9,-43.043 14.49,-25.012 28.88,-50.094 40.89,-76.445 0.68,-1.488 1.95,-2.711 3.47,-3.746 -6.86,31.269 -19.77,59.968 -34.84,87.941 -8.22,15.242 -18.46,29.059 -27.87,43.449 -3.24,4.961 -2.38,7.871 1.8,10.996 1.87,1.399 3.56,3.032 5.38,4.5 9.76,7.891 13.73,7.438 21.53,-2.48 20.21,-25.691 40.49,-51.481 54.96,-80.914 18.42,-37.481 37.18,-75.074 43.33,-117.09 4.62,-31.602 0.46,-62.859 -5.86,-93.855 -1.21,-5.961 -1.85,-12.071 -4.32,-17.813 -4.31,-10.039 -10.75,-13.449 -20.88,-9.93 -19.59,6.813 -36.75,18.02 -52.14,31.563 -20.68,18.199 -38.2,39.348 -52.32,62.996 -18.14,30.391 -33.64,61.895 -43.91,96.137 -7.49,24.968 -14.34,49.879 -17.98,75.668 -1.87,13.265 2.59,21.593 13.35,23.765 6.87,1.387 12.52,0.328 14.84,-8.035 5.25,-18.855 10.57,-37.723 19.17,-55.437 2.81,-5.778 5.69,-11.442 11.9,-15.7"
         style="fill:#e10078;fill-opacity:1;fill-rule:nonzero;stroke:none"
         id="path48" /><path
         d="m 1400.39,1151.24 c -1.01,-1.83 -33.45,-45.7 -37.97,-50.65 -4.01,-4.39 -8.92,-6.87 -14.87,-4.45 -6.06,2.48 -7.27,8.02 -7.38,13.77 -0.23,12.23 4.22,23.52 8.15,34.72 5.98,17.04 20.94,54.75 21.65,57.89 -3.65,-2.81 -35.49,-61.74 -43.45,-90.57 -1.63,-5.91 -4.43,-8.54 -10.51,-7.38 -8.02,1.54 -16.06,2.97 -24.07,4.58 -6.08,1.22 -8.88,4.94 -8.46,11.26 0.62,9.38 2.97,18.41 5.57,27.34 17.19,59.12 48.33,110.7 84.41,160.09 26.44,36.2 63.2,56.18 102.67,73 12.41,5.29 18.46,0.55 19.18,-13.12 1.24,-23.59 2.77,-47.15 0.95,-70.79 -2.27,-29.46 -10.63,-57.32 -22.11,-84.32 -19.79,-46.56 -45.12,-90.26 -69.65,-134.38 -3.44,-6.17 -7.1,-8.1 -13.24,-4.13 -1.21,0.78 -2.7,1.11 -4.01,1.77 -19.25,9.74 -20.46,15.66 -6.44,32.31 6.05,7.18 10.63,15.25 14.84,23.57 2.98,5.89 7.02,11.24 9.07,17.61 0.5,1.56 1.68,3.68 -0.31,4.53 -1.76,0.75 -2.75,-1.58 -4.02,-2.65"
         style="fill:#e10078;fill-opacity:1;fill-rule:nonzero;stroke:none"
         id="path50" /><path
         d="m 1666.81,579.391 c 9.22,-20.895 16.58,-42.418 21.6,-64.711 3.81,-16.879 -0.78,-23.34 -18.02,-22.985 -24.13,0.496 -47.23,7.043 -69.84,14.887 -25.2,8.734 -48.66,20.973 -70.91,35.84 -12.86,8.59 -21.55,19.418 -25.59,34.156 -11.33,41.336 -31.95,78.149 -54.67,114.082 -10.98,17.371 -22.93,33.742 -37.86,47.879 -5.93,5.609 -5.64,11.078 0.33,16.457 1.09,0.977 2.02,2.117 3.1,3.102 9.32,8.488 10.57,8.992 20.44,0.945 35.43,-28.91 75.99,-48.805 117.29,-67.43 19.43,-8.761 38.83,-17.605 58.48,-25.859 11.5,-4.828 16.78,-15.231 23.07,-24.43 13.22,-19.328 23.67,-40.261 32.58,-61.933"
         style="fill:#e10078;fill-opacity:1;fill-rule:nonzero;stroke:none"
         id="path52" /><path
         d="m 1687.17,975.176 c 18.18,-0.492 34.92,-6.84 51.48,-13.305 25.85,-10.101 51.74,-20.18 76.72,-32.359 2.88,-1.403 5.76,-2.899 8.37,-4.735 9.2,-6.476 9.73,-13.648 0.76,-20.437 -39.04,-29.563 -80.09,-55.582 -127.53,-69.777 -16.61,-4.969 -32.88,-2.754 -48.92,3.234 -26.54,9.914 -53.39,18.887 -81.22,24.535 -26.92,5.465 -54.16,8.664 -81.57,10.074 -5.53,0.285 -8.08,2.035 -8.91,7.106 1.7,4.558 6.02,5.234 9.84,6.07 24.56,5.383 48.78,12.707 74.2,13.598 -18.56,2.152 -36.64,-4.016 -55.11,-3.086 0,0 -13.5,-2.934 -20.46,-3.219 -4.28,-0.172 -8.37,-0.734 -9.49,4.926 -1.44,7.262 0.85,12.5 6.78,13.953 8.49,2.078 17.26,2.625 25.82,4.523 39.26,8.719 77.96,19.348 115.83,32.981 9.03,3.254 18.26,5.867 27.2,9.523 11.06,4.532 20.43,12.395 32.04,15.727 1.38,0.394 1.86,0.648 4.17,0.668"
         style="fill:#e10078;fill-opacity:1;fill-rule:nonzero;stroke:none"
         id="path54" /><path
         d="m 1262.52,1256.4 c -2.65,-23.64 -1.11,-47.19 1.28,-70.75 2.19,-21.63 9.74,-42.69 6.07,-64.97 -1.61,-9.75 -2.01,-10.44 -14.77,-10.71 -8.2,-0.18 -8.59,4.91 -8.87,10.92 -1.54,32.89 -8.91,64.72 -18.39,96.05 -9.04,29.89 -18.7,59.6 -28.52,89.24 -3.21,9.7 0.88,18.01 3.93,26.22 15.74,42.37 35.7,82.49 65.59,116.97 9.25,10.68 15.06,10.74 23.84,-0.16 25.8,-32.05 44.05,-68.02 55.07,-107.64 2.51,-8.99 4.52,-18.11 6.71,-27.19 1.61,-6.72 0.15,-12.63 -4.4,-17.93 -26.9,-31.3 -46.87,-66.81 -63.53,-104.35 -1.69,-3.8 -2.74,-10.25 -7.2,-9.86 -4.94,0.42 -11.63,90.63 -11.01,96.21 -4.23,-7.22 -5.04,-14.63 -5.8,-22.05"
         style="fill:#e10078;fill-opacity:1;fill-rule:nonzero;stroke:none"
         id="path56" /><path
         d="m 1470.89,1116.11 c -17.06,-15.57 -32.72,-32.47 -47.87,-49.88 -2.64,-3.02 -4.82,-10.12 -10.6,-5.9 -4.92,3.58 0.02,7.87 1.98,11.35 26.31,46.86 50.87,94.59 71.76,144.14 3.74,8.86 6.9,17.98 10.23,27.02 4.48,12.18 14.57,18.46 25.19,24.29 32.19,17.62 66.63,29.69 101.38,40.95 14.94,4.84 21.29,0.07 22.38,-15.57 1.35,-19.42 -4.72,-37.45 -9.4,-55.81 -6.36,-24.95 -14.53,-49.26 -24.86,-72.84 -11.34,-25.88 -31.65,-40.59 -58.2,-48.94 -23.74,-7.46 -45.48,-19.73 -66.39,-33.12 -17.42,-11.15 -34.29,-23.15 -51.39,-34.81 -2.38,-1.62 -4.78,-4.4 -7.66,-1.71 -3.35,3.13 -0.12,5.92 1.49,8.44 11.49,18.01 25.08,34.36 39.71,49.87 13.28,14.35 28.65,26.59 41.24,41.21 -15.08,-6.39 -27.27,-17.22 -38.99,-28.69"
         style="fill:#e10078;fill-opacity:1;fill-rule:nonzero;stroke:none"
         id="path58" /><path
         d="m 572.523,233.672 c -28.503,44.027 -59.367,86.449 -91.668,127.726 24.833,9.082 48.903,18.012 70.094,26.082 15.59,5.95 16.715,16.329 15.008,30.168 -12.93,104.774 -54.973,196.95 -117.73,280.883 -13.762,18.41 -28.743,11.821 -45.446,4.793 -38.246,-16.09 -76.668,-31.82 -114.816,-48.129 l -0.027,0.039 L 57.0195,569.094 0,551.453 208.871,250.711 l 152.004,62.07 c 18.727,-24.601 37.496,-49.16 56.281,-73.711 18.746,-24.5 37.524,-48.968 56.157,-73.55 14.695,-19.391 41.558,-18.309 71.074,-0.399 35.554,21.578 38.539,52.481 28.136,68.551"
         style="fill:#82b623;fill-opacity:1;fill-rule:nonzero;stroke:none"
         id="path60" /></g></g></svg>
