<?xml version="1.0" encoding="UTF-8" standalone="no"?>
<!-- Created with Inkscape (http://www.inkscape.org/) -->

<svg
   width="130mm"
   height="93.446999mm"
   viewBox="0 0 130 93.446999"
   version="1.1"
   id="svg3950"
   inkscape:version="1.2.1 (9c6d41e410, 2022-07-14)"
   sodipodi:docname="gsoa-gssa-gsse.svg"
   inkscape:export-filename="gsoa-gssa-gsse.png"
   inkscape:export-xdpi="293.56"
   inkscape:export-ydpi="293.56"
   xmlns:inkscape="http://www.inkscape.org/namespaces/inkscape"
   xmlns:sodipodi="http://sodipodi.sourceforge.net/DTD/sodipodi-0.dtd"
   xmlns="http://www.w3.org/2000/svg"
   xmlns:svg="http://www.w3.org/2000/svg">
  <sodipodi:namedview
     id="namedview3952"
     pagecolor="#ffffff"
     bordercolor="#111111"
     borderopacity="1"
     inkscape:showpageshadow="0"
     inkscape:pageopacity="0"
     inkscape:pagecheckerboard="1"
     inkscape:deskcolor="#d1d1d1"
     inkscape:document-units="mm"
     showgrid="false"
     inkscape:zoom="1.4142136"
     inkscape:cx="606.6976"
     inkscape:cy="60.104075"
     inkscape:window-width="3840"
     inkscape:window-height="2054"
     inkscape:window-x="-11"
     inkscape:window-y="-11"
     inkscape:window-maximized="1"
     inkscape:current-layer="layer1" />
  <defs
     id="defs3947" />
  <g
     inkscape:label="Layer 1"
     inkscape:groupmode="layer"
     id="layer1">
    <rect
       style="fill:#ffffff;fill-opacity:1;stroke-width:150;stroke-linecap:round;stroke-linejoin:round"
       id="rect12122"
       width="130"
       height="93.446999"
       x="7.1054274e-15"
       y="0"
       ry="10.664054" />
    <g
       id="g9333"
       transform="matrix(0.42765381,0,0,0.42765381,6.1848666,-10.317377)">
      <path
         d="m 36.061412,167.80962 c -10.82862,0 -15.448633,4.4704 -15.448633,14.94691 v 9.85672 c 0,10.47736 4.620013,14.94702 15.448633,14.94702 h 22.619616 c 10.828514,0 15.449197,-4.46966 15.449197,-14.94702 v -6.25934 H 40.98626 v 6.92947 c 0,0 23.698693,-0.0474 24.915776,-0.05 0,0.55189 0,1.22259 0,1.22259 0,4.46966 -2.176639,6.21097 -7.763933,6.21097 H 36.604654 c -5.588247,0 -7.765803,-1.74131 -7.765803,-6.21097 v -13.5406 c 0,-4.46994 2.177556,-6.21111 7.765803,-6.21111 h 21.533449 c 3.604683,0 5.78485,0.78136 6.860822,2.45748 l 0.189089,0.29365 h 8.4455 l -0.216958,-0.80616 c -1.64465,-6.11332 -6.189486,-8.83959 -14.735528,-8.83959 H 36.061412"
         style="fill:#000000;fill-opacity:1;fill-rule:nonzero;stroke:none;stroke-width:0.0352778"
         id="path1771" />
      <path
         d="m 128.26186,185.36518 v 0 h -3.6e-4 z M 96.486811,167.80962 c -5.414434,0 -9.110839,1.08514 -11.6332,3.41242 -1.447447,1.17676 -2.408767,2.72732 -2.907242,4.71473 -0.26423,1.05364 -0.392641,2.16091 -0.392641,3.38487 0,5.20457 1.752952,8.27387 5.683602,9.95193 3.851628,1.64673 9.942689,1.95873 19.83528,1.95873 h 11.27302 c 6.95395,0 7.70466,1.15605 8.00417,2.78846 0,0 0,0 0,8.5e-4 0,0.0348 0.11854,1.48177 0.11854,1.48177 -0.002,3.22174 -1.01742,4.32456 -4.52932,4.86325 -0.99624,0.20394 -2.09021,0.30029 -3.37679,0.30029 H 98.343127 c -2.737202,0 -4.727927,-0.24063 -6.086475,-0.73643 -0.720372,-0.29492 -1.301397,-0.69867 -1.755069,-1.22438 l 3.53e-4,-5.7e-4 c 0,-0.0223 -0.164042,-0.35168 -0.164042,-0.35168 l -0.176742,-0.35458 -0.418747,-0.051 h -8.050741 l 0.07055,0.85975 c 0.470253,2.973 2.074334,5.17786 4.774142,6.60233 2.348089,1.44005 5.614458,2.14988 9.95045,2.14988 h 22.617644 c 2.31916,0 4.31447,-0.20809 6.10094,-0.63611 6.45689,-1.18993 9.7476,-4.66756 9.7476,-10.32869 v -2.33838 c 0,-1.10504 -0.15734,-2.15869 -0.46849,-3.12978 -0.86712,-2.71928 -2.90265,-4.60473 -6.22264,-5.76213 -2.74849,-0.95899 -6.40821,-1.42504 -11.1887,-1.42504 H 99.495299 c -9.929635,0 -9.929635,-1.79116 -9.929635,-4.26971 0,-1.67375 0.302683,-2.72369 0.98178,-3.40251 1.567039,-1.56615 5.562953,-1.56478 12.817476,-1.56368 h 7.04109 c 10.74914,0 13.89451,0.50507 14.63111,2.34876 l 0.16122,0.40237 h 8.68609 l -0.16298,-0.7312 -0.3489,-1.58556 c -0.42933,-1.39555 -1.16346,-2.55792 -2.24508,-3.55039 -2.4384,-2.56822 -6.26851,-3.7786 -12.02302,-3.7786 H 96.486811"
         style="fill:#000000;fill-opacity:1;fill-rule:nonzero;stroke:none;stroke-width:0.0352778"
         id="path1773" />
      <path
         d="m 185.17055,189.25964 v 0 h -7e-4 c 0,0 0,0 7e-4,0 z m -27.64931,-14.22425 c -4.71134,0 -7.92832,0.87863 -10.12295,2.76504 -1.25907,0.95359 -2.09515,2.21036 -2.53013,3.81977 -0.22895,0.85496 -0.34113,1.75108 -0.34113,2.74355 0,4.21721 1.52576,6.70345 4.94559,8.06316 3.35245,1.33382 8.65152,1.58764 17.2593,1.58764 h 9.80969 c 6.0519,0 6.70489,0.93624 6.9656,2.25972 0,0.0284 0.10336,1.19987 0.10336,1.19987 -0.002,2.61094 -0.88618,3.50393 -3.94088,3.94144 -0.86713,0.16482 -1.81998,0.24282 -2.9397,0.24282 h -17.59338 c -2.38125,0 -4.11374,-0.19445 -5.2959,-0.59669 -0.62724,-0.23855 -1.13206,-0.56638 -1.52682,-0.99176 v -7.1e-4 c 0,-0.0186 -0.14287,-0.28497 -0.14287,-0.28497 l -0.15417,-0.28759 -0.36442,-0.0412 h -7.00546 l 0.0624,0.69755 c 0.40817,2.40856 1.80446,4.19489 4.1529,5.34886 2.04364,1.16734 4.88562,1.74198 8.65893,1.74198 h 19.68112 c 2.01789,0 3.75426,-0.16854 5.30825,-0.5147 5.61904,-0.96477 8.48289,-3.78256 8.48289,-8.36994 v -1.89477 c 0,-0.89507 -0.13652,-1.74862 -0.40816,-2.53478 -0.75424,-2.2043 -2.52589,-3.73119 -5.41479,-4.67004 -2.39077,-0.77667 -5.57565,-1.15492 -9.7356,-1.15492 h -15.29539 c -8.64094,0 -8.64094,-1.45041 -8.64094,-3.45846 0,-1.35629 0.26353,-2.2068 0.85443,-2.75678 1.36349,-1.26915 4.84117,-1.26848 11.15377,-1.26753 h 6.1267 c 9.3539,0 12.09004,0.40943 12.73175,1.90323 l 0.14005,0.32618 h 7.55826 l -0.14217,-0.59298 -0.30445,-1.28432 c -0.37218,-1.13126 -1.01211,-2.07257 -1.95262,-2.87751 -2.12231,-2.07997 -5.45465,-3.06115 -10.46198,-3.06115 z"
         style="fill:#b40e44;fill-opacity:1;stroke:#b40e44;stroke-width:0.635;stroke-linecap:butt;stroke-linejoin:miter;stroke-miterlimit:4;stroke-dasharray:none;stroke-opacity:1"
         id="path1777" />
      <path
         d="m 215.69394,174.70424 h 29.74975 v -6.89462 H 215.7959 c -10.82993,0 -15.45096,4.4704 -15.45096,14.94691 0,5.7e-4 0.004,4.16292 0.001,7.86254 0,0 -0.001,1.99375 -0.001,1.99418 0,10.47665 4.62103,14.94702 15.45096,14.94702 h 29.64779 v -6.89473 h -29.74975 c -5.5887,0 -7.76569,-1.74117 -7.76569,-6.21097 v -3.553 h 29.2167 v -6.79221 h -29.2167 v -3.19401 c 0,-4.46994 2.17699,-6.21111 7.76569,-6.21111"
         style="fill:#000000;fill-opacity:1;fill-rule:nonzero;stroke:none;stroke-width:0.0352778"
         id="path1779" />
    </g>
    <g
       id="g9353"
       transform="translate(15,21.290175)">
      <path
         id="path40"
         style="fill:#000000;fill-opacity:1;fill-rule:nonzero;stroke:none;stroke-width:0.0147456"
         d="m 83.470858,16.933342 c -4.631595,0 -6.607442,1.911403 -6.607442,6.392088 l 4.18e-4,0.852553 c 0.0021,4.223528 0.0042,9.079681 0.005,9.141773 0,8.36e-4 0.0099,0.61301 0.0099,0.61301 h 3.502226 v -6.142827 h 15.85036 v 6.142827 h 3.50244 l 0.01016,-0.611931 c 0.0021,-0.08438 0.005,-9.107344 0.005,-9.99497 0,-4.48097 -1.975446,-6.392523 -6.605716,-6.392523 z m 0.231338,2.948618 h 9.208731 c 2.389377,0 3.32057,0.744758 3.32057,2.655935 v 2.347491 H 80.381191 v -2.347491 c 0,-1.911177 0.931034,-2.655935 3.321005,-2.655935 z" />
      <path
         d="M 6.6066654,16.933342 C 1.9758518,16.933342 2.7009681e-8,18.844816 2.7009681e-8,23.325355 v 4.215461 C 2.7009681e-8,32.021058 1.9758518,33.932519 6.6066654,33.932519 h 9.6732206 c 4.631005,0 6.606916,-1.911461 6.606916,-6.391703 V 24.863793 H 8.7127506 v 2.963527 c 0,0 10.1347874,-0.02069 10.6554544,-0.02165 0,0.235991 0,0.523072 0,0.523072 0,1.911561 -0.93089,2.656111 -3.320268,2.656111 H 6.8389087 c -2.3898189,0 -3.3209907,-0.74455 -3.3209907,-2.656111 v -5.791 c 0,-1.911222 0.9311718,-2.655872 3.3209907,-2.655872 h 9.2090283 c 1.541506,0 2.473871,0.333853 2.934081,1.050682 l 0.08066,0.125914 h 3.611788 L 22.581716,20.71367 C 21.878498,18.09914 19.93488,16.933353 16.279887,16.933353 H 6.6066654"
         style="fill:#000000;fill-opacity:1;fill-rule:nonzero;stroke:none;stroke-width:0.0147456"
         id="path44" />
      <path
         d="m 46.036667,24.440729 v 0 h -1.51e-4 z M 32.447705,16.933342 c -2.315207,0 -3.896084,0.463747 -4.974872,1.459226 -0.619021,0.503117 -1.029981,1.166493 -1.24335,2.016267 -0.112951,0.45073 -0.167805,0.924317 -0.167805,1.447664 0,2.225615 0.749667,3.538077 2.430666,4.256072 1.647084,0.703926 4.252043,0.837506 8.48241,0.837506 h 4.821076 c 2.973893,0 3.295052,0.494493 3.423043,1.192609 0,0.01492 0.05073,0.634001 0.05073,0.634001 -8.36e-4,1.377446 -0.435144,1.849306 -1.936983,2.079926 -0.426003,0.08704 -0.894026,0.128229 -1.444187,0.128229 h -8.646674 c -1.170506,0 -2.021917,-0.103159 -2.602894,-0.314848 -0.308183,-0.126148 -0.556647,-0.298776 -0.750699,-0.523807 0,0 1.48e-4,0 1.48e-4,-3.55e-4 0,-0.0093 -0.07004,-0.150391 -0.07004,-0.150391 l -0.07565,-0.151261 -0.179159,-0.02194 h -3.442804 l 0.03023,0.367652 c 0.200982,1.271232 0.887095,2.214275 2.041529,2.823677 1.004323,0.615802 2.401174,0.91895 4.255286,0.91895 h 9.672674 c 0.991792,0 1.845118,-0.08893 2.609087,-0.271929 2.76141,-0.508722 4.168584,-1.995781 4.168584,-4.416997 v -1.000164 c 0,-0.472554 -0.06724,-0.922871 -0.20039,-1.338223 -0.370854,-1.163121 -1.241288,-1.969231 -2.660993,-2.464477 -1.175372,-0.410003 -2.740473,-0.609407 -4.78495,-0.609407 h -7.51731 c -4.246439,0 -4.246439,-0.765741 -4.246439,-1.825699 0,-0.716017 0.129466,-1.164784 0.419954,-1.454978 0.670041,-0.669818 2.378909,-0.669538 5.481384,-0.668786 h 3.011055 c 4.59709,0 5.942034,0.216053 6.257296,1.004365 l 0.06872,0.172231 h 3.71471 l -0.0696,-0.312711 -0.149225,-0.678358 c -0.183729,-0.596503 -0.497812,-1.093697 -0.960234,-1.51837 -1.042807,-1.098254 -2.680751,-1.615674 -5.141646,-1.615674 h -9.672674"
         style="fill:#000000;fill-opacity:1;fill-rule:nonzero;stroke:none;stroke-width:0.0147456"
         id="path46" />
      <path
         d="m 70.237282,26.10985 v 0 h -1.47e-4 c 0,0 0,0 1.47e-4,0 z M 58.413077,20.026712 c -2.014988,0 -3.390608,0.37579 -4.329312,1.182478 -0.538361,0.407569 -0.89609,0.94509 -1.081885,1.633534 -0.09806,0.365352 -0.145835,0.748854 -0.145835,1.173306 0,1.803228 0.652346,2.866755 2.114669,3.448349 1.433716,0.570345 3.70026,0.678579 7.381356,0.678579 h 4.195125 c 2.587854,0 2.867282,0.400668 2.978612,0.966412 0,0.01204 0.04409,0.513457 0.04409,0.513457 -8.35e-4,1.116052 -0.378669,1.498404 -1.685276,1.685319 -0.370703,0.07068 -0.778126,0.103794 -1.257063,0.103794 h -7.523947 c -1.018184,0 -1.759147,-0.08306 -2.264922,-0.254996 -0.268075,-0.102068 -0.483952,-0.242094 -0.652789,-0.424406 0,-0.0081 -0.0609,-0.121931 -0.0609,-0.121931 l -0.06606,-0.122804 -0.155712,-0.01772 h -2.996013 l 0.02654,0.29807 c 0.174881,1.030188 0.771786,1.794308 1.776255,2.287652 0.873971,0.499046 2.089306,0.744826 3.703065,0.744826 h 8.416643 c 0.862911,0 1.605354,-0.07223 2.270235,-0.22032 2.402941,-0.412243 3.627564,-1.617129 3.627564,-3.578974 v -0.810332 c 0,-0.383029 -0.05854,-0.747864 -0.174588,-1.084317 C 72.230294,27.164017 71.472666,26.510994 70.23728,26.10987 69.21482,25.7774 67.852914,25.615949 66.073712,25.615949 h -6.541004 c -3.695399,0 -3.695399,-0.620642 -3.695399,-1.479043 0,-0.580268 0.112806,-0.944012 0.365399,-1.17925 0.583186,-0.542596 2.070283,-0.542596 4.770057,-0.541902 h 2.619851 c 4.000336,0 5.170545,0.175224 5.444961,0.814002 l 0.05972,0.139449 h 3.232384 l -0.06061,-0.253843 -0.130057,-0.548978 C 71.979622,22.08265 71.706092,21.680138 71.303684,21.335873 70.396237,20.446182 68.970927,20.026729 66.82972,20.026729 Z"
         style="fill:#b40e44;fill-opacity:1;stroke:#b40e44;stroke-width:0.265421;stroke-linecap:butt;stroke-linejoin:miter;stroke-miterlimit:4;stroke-dasharray:none;stroke-opacity:1"
         id="path50" />
    </g>
    <g
       id="g9347"
       transform="translate(15,15)">
      <path
         id="path834"
         style="fill:#020202;fill-opacity:1;fill-rule:nonzero;stroke:none;stroke-width:0.0148491"
         d="M 83.482927,2.4633333e-6 C 78.851489,2.4633333e-6 76.875,1.9117221 76.875,6.3925902 l 7.42e-4,0.8524457 c 0.0022,4.2235321 0.0048,9.0796921 0.0054,9.1422071 0,5.94e-4 0.0096,0.612744 0.0096,0.612744 h 3.502229 V 10.85711 h 15.851277 v 6.142877 h 3.502873 l 0.0104,-0.611656 c 0.001,-0.08449 0.005,-9.1079131 0.005,-9.9957408 C 99.762141,1.9117221 97.786351,2.4633333e-6 93.155954,2.4633333e-6 Z M 83.714363,2.9486531 h 9.209419 c 2.389667,0 3.320387,0.7446457 3.320387,2.6558757 V 7.9521822 H 80.392891 V 5.6045288 c 0,-1.91123 0.93136,-2.6558757 3.321472,-2.6558757 z" />
      <path
         d="M 6.6069765,-6.8160006e-8 C 1.9759113,-6.8160006e-8 0,1.911674 0,6.3925405 V 10.608202 C 0,15.088326 1.9759113,17 6.6069765,17 h 9.6737325 c 4.631288,0 6.607259,-1.911674 6.607259,-6.391798 V 7.9310565 H 8.7131739 v 2.9635845 c 0,0 10.1353911,-0.02079 10.6560011,-0.02183 0,0.236249 0,0.523283 0,0.523283 0,1.911377 -0.931039,2.656208 -3.320409,2.656208 H 6.8392908 c -2.3898895,0 -3.3211513,-0.744831 -3.3211513,-2.656208 V 5.6046469 c 0,-1.9112286 0.9312618,-2.6559113 3.3211513,-2.6559113 h 9.2094752 c 1.541486,0 2.473862,0.3338079 2.934184,1.0505743 l 0.08063,0.1260689 h 3.612045 L 22.582967,3.7804341 C 21.879565,1.1659518 19.935817,-6.8160006e-8 16.280709,-6.8160006e-8 H 6.6069765"
         style="fill:#000000;fill-opacity:1;fill-rule:nonzero;stroke:none;stroke-width:0.0148491"
         id="path838" />
      <path
         d="m 46.073067,7.5077084 v 0 h -1.49e-4 z M 32.483609,-6.8160006e-8 C 30.16804,-6.8160006e-8 28.587204,0.46388603 27.508268,1.4592217 26.889208,1.9626064 26.478334,2.625916 26.264952,3.4757304 26.15195,3.9264008 26.097009,4.3999388 26.097009,4.9236668 c 0,2.2254357 0.749731,3.5382452 2.430798,4.2559026 1.64736,0.7042931 4.252339,0.8379346 8.482998,0.8379346 h 4.821208 c 2.974128,0 3.295314,0.494179 3.423313,1.192532 v 0 c 0,0.015 0.05064,0.63376 0.05064,0.63376 -8.91e-4,1.377849 -0.435079,1.849456 -1.937066,2.08036 -0.426021,0.08716 -0.894065,0.128296 -1.444224,0.128296 h -8.647229 c -1.170555,0 -2.022003,-0.103201 -2.6029,-0.314801 -0.308119,-0.126217 -0.556545,-0.299209 -0.750623,-0.524025 0,0 1.49e-4,0 1.49e-4,-4.45e-4 0,-0.0094 -0.07024,-0.150273 -0.07024,-0.150273 l -0.07558,-0.151313 -0.179081,-0.02183 H 26.15611 l 0.03029,0.367813 c 0.200909,1.271083 0.887086,2.21415 2.041604,2.82326 C 29.232249,16.696633 30.629253,17 32.483609,17 h 9.673006 c 0.99192,0 1.845298,-0.08865 2.609285,-0.27159 2.761488,-0.508879 4.168887,-1.996314 4.168887,-4.417609 v -1.000236 c 0,-0.472499 -0.06741,-0.922575 -0.200463,-1.3379048 C 48.363393,8.8093812 47.492938,8.0032231 46.073067,7.5077084 44.897611,7.0977246 43.332516,6.8983011 41.287942,6.8983011 h -7.517657 c -4.246696,0 -4.246696,-0.7657685 -4.246696,-1.8255492 0,-0.716321 0.129484,-1.1649125 0.419932,-1.4552125 0.67014,-0.6699917 2.379124,-0.6696947 5.481548,-0.6688038 h 3.011399 c 4.597284,0 5.942316,0.2160545 6.257562,1.0046906 l 0.0689,0.1721011 h 3.714801 L 48.408089,3.8125082 48.258855,3.1343494 C 48.075172,2.5375638 47.761113,2.0404157 47.298564,1.6158798 46.255711,0.5176398 44.617706,-6.816002e-8 42.156615,-6.816002e-8 h -9.673006"
         style="fill:#000000;fill-opacity:1;fill-rule:nonzero;stroke:none;stroke-width:0.0148491"
         id="path840" />
      <path
         id="path842"
         style="fill:#b40e44;fill-opacity:1;fill-rule:nonzero;stroke:none;stroke-width:0.0148491"
         d="m 57.857842,3.275119 c -4.109193,0 -6.192904,1.944051 -6.192904,5.7785359 v 2.1677661 c 0,3.834485 2.083711,5.778538 6.192904,5.778538 h 9.854138 c 4.109789,0 6.19421,-1.944053 6.19421,-5.778538 V 9.0536549 c 0,-3.8344849 -2.084421,-5.7785359 -6.19421,-5.7785359 z m 0,2.8220549 h 9.854138 c 2.867513,0 3.372155,0.953485 3.372155,2.956481 v 2.1677661 c 0,2.002996 -0.504642,2.956481 -3.372155,2.956481 h -9.854138 c -2.866917,0 -3.371501,-0.953485 -3.371501,-2.956481 V 9.0536549 c 0,-2.002996 0.504584,-2.956481 3.371501,-2.956481 z" />
    </g>
  </g>
</svg>
