<?xml version="1.0" encoding="utf-8"?>
<!-- Generator: Adobe Illustrator 27.9.2, SVG Export Plug-In . SVG Version: 6.00 Build 0)  -->
<svg version="1.1" id="Layer_1" xmlns="http://www.w3.org/2000/svg" xmlns:xlink="http://www.w3.org/1999/xlink" x="0px" y="0px"
	 viewBox="0 0 200 66" style="enable-background:new 0 0 200 66;" xml:space="preserve">
<style type="text/css">
	.st0{fill:#010101;}
	.st1{fill:#17B4C4;}
</style>
<g>
	<path class="st0" d="M18.3,0c0.5,0.1,1,0.1,1.4,0.2C23.1,0.6,26,2,28.5,4.3C29,4.8,29,4.8,28.6,5.3c-1.2,1.4-2.5,2.9-3.7,4.3
		c-0.1,0.2-0.2,0.2-0.4,0c-1.3-1.1-2.7-2.2-4.3-2.7c-3.3-1.1-6.3-0.8-9,1.5c-1.8,1.5-2.8,3.5-3.2,5.8c-0.4,2.8,0,5.4,1.6,7.7
		c1.6,2.4,3.8,3.7,6.7,3.9c2.6,0.2,4.9-0.5,6.9-2.1c0.6-0.4,1.1-0.9,1.6-1.4c0.1-0.1,0.2-0.1,0.3,0c1.4,1.4,2.7,2.8,4.1,4.1
		c0.1,0.1,0.1,0.2,0,0.3c-2.7,2.9-5.9,4.8-10,5.3c-2.8,0.3-5.5,0.2-8.2-0.8C5.4,29,2,25,0.9,19.1c-0.9-4.7,0.1-9.1,3-13
		c2.4-3.1,5.6-5,9.4-5.8c0.6-0.1,1.2-0.2,1.8-0.3c0.1,0,0.1,0,0.1-0.1C16.3,0,17.3,0,18.3,0z"/>
	<path class="st1" d="M36,44.1c0.6-0.5,1.2-0.9,1.9-1.3c0.3-0.1,0.7-0.3,1.1-0.3c0.4,0,0.7,0.1,1,0.3c1.2,0.9,1.6,2.9,0.7,4.1
		c-0.3,0.5-0.7,0.8-1.2,1.2c-1,0.8-2,1.4-3.2,1.7c-0.2,0.1-0.3,0.2-0.3,0.4c0.1,0.9,0.2,1.8,0.6,2.7c0.2,0.4,0.4,0.7,0.7,1
		c0.4,0.3,0.9,0.4,1.4,0.2c0.3-0.2,0.6-0.4,0.8-0.6c0.1-0.1,0.3-0.3,0.4-0.4c0.6-0.7,1.1-1.4,1.1-2.4c0-1.8,0.9-3.3,1.9-4.7
		c0.7-0.9,1.5-1.8,2.4-2.4c0.7-0.5,1.5-0.8,2.4-0.7c0.8,0.1,1.3,0.6,1.9,1.1c0.9,0.7,1.1,1.7,0.8,2.8c-0.4,1.4-1.2,2.5-2.4,3.3
		c-1.3,0.9-2.7,0.8-4-0.1c-0.3-0.2-0.3-0.2-0.4,0.2c-0.2,0.8-0.4,1.6-0.3,2.5c0.2,1.5,1.1,2.1,2.6,1.8c1.2-0.2,2.1-0.9,3-1.7
		c0.8-0.7,1.4-1.5,2-2.4c0.1-0.2,0.2-0.3,0.4-0.3c0.2,0.1,0.2,0.3,0.2,0.4c0,0.5-0.2,1-0.4,1.4c-1.4,2-3.3,3.2-5.7,3.4
		c-0.9,0.1-1.8-0.1-2.6-0.5c-0.7-0.4-1.1-1-1.5-1.7c-0.4,0.4-0.7,0.8-1.1,1.1c-1.3,0.9-2.6,1.2-4.1,0.6c-1.2-0.5-1.7-1.5-2.1-2.7
		c-0.3-0.9-0.3-1.9-0.3-2.8c0-0.5,0.1-0.6,0.6-0.8c1.3-0.4,2.6-1.1,3.7-2c0.6-0.5,1.1-1,1.4-1.6c0.1-0.2,0.2-0.4,0.3-0.7
		c0.1-0.4-0.1-0.6-0.5-0.7c-0.4,0-0.8,0.1-1.1,0.2c-1.6,0.8-2.9,2-3.9,3.4c-1.2,1.7-2,3.7-2.9,5.6c-0.3,0.6-0.5,1.2-0.8,1.9
		c-0.1,0.3-0.4,0.4-0.6,0.1c-0.2-0.2-0.3-0.5-0.4-0.8c-0.4,0.3-0.7,0.5-1,0.8c-0.8,0.5-1.7,0.7-2.6,0.5c-1-0.2-1.7-0.9-1.8-2
		c0-0.1,0-0.2-0.1-0.3c-0.4,0.5-0.9,1-1.4,1.3c-0.6,0.5-1.3,0.8-2.1,0.9c-1.2,0.1-2.1-0.5-2.5-1.6c0-0.1-0.1-0.3-0.1-0.5
		c-0.5,0.6-1,1.1-1.7,1.5c-1.2,0.7-2.4,1-3.7,0.4c-0.9-0.4-1.4-1.1-1.5-2c-0.1-0.9,0.2-1.8,0.6-2.6c0.7-1.4,1.6-2.7,2.4-4
		c0.3-0.4,0.5-0.8,0.7-1.2c0.1-0.1,0.2-0.3,0.1-0.4c-0.1-0.1-0.3,0-0.4,0c-0.6,0.2-1.1,0.7-1.6,1.1c-2.2,1.9-3.9,4.2-5.2,6.8
		c-0.4,0.8-0.7,1.6-1.1,2.3c-0.1,0.1-0.1,0.2-0.2,0.3c-0.2,0.2-0.3,0.2-0.5,0C5.4,55,5.3,54.6,5.2,54c-0.1-1.1,0.3-2.2,0.8-3.2
		c0.7-1.5,1.7-2.9,2.6-4.3c0.3-0.5,0.6-0.9,0.8-1.5c0-0.1,0.1-0.2,0-0.4c-0.1-0.1-0.3-0.1-0.4,0c-0.5,0.2-1,0.5-1.4,0.8
		c-2.1,1.6-3.6,3.7-4.8,6c-0.6,1.1-1.1,2.2-1.6,3.3C1,55.4,0.8,55.4,0.4,55c-0.2-0.2-0.3-0.6-0.4-0.8c0-0.4,0-0.7,0-1.1
		c1-3.5,2.9-6.6,4.8-9.7c0-0.1,0.1-0.1,0.1-0.2c0.3-0.4,0.5-0.4,0.8,0.1c0.4,0.8,0.3,1.7,0.1,2.5c0,0.1-0.1,0.2,0,0.4
		c0.3-0.3,0.6-0.6,0.8-0.9c0.8-0.8,1.7-1.5,2.8-2c1.3-0.6,1.9,0.1,2.1,1.1c0.1,0.5,0.1,1,0,1.6c0.5-0.5,1-0.9,1.5-1.3
		c0.6-0.5,1.3-0.9,2-1.3c1.2-0.5,1.8-0.1,1.9,1.1c0.1,0.9-0.1,1.7-0.5,2.4c-0.6,1.3-1.5,2.5-2.2,3.7c-0.4,0.6-0.7,1.2-0.8,2
		c0,0.3,0,0.6,0,0.9c0.2,0.7,0.8,1,1.5,0.8c0.7-0.2,1.1-0.8,1.6-1.3c0.6-0.7,1.1-1.5,1.5-2.3c0.3-0.6,0.5-1.3,0.8-1.9
		c1.1-1.9,2.5-3.6,4.3-4.9c0.6-0.5,1.3-0.8,2.1-0.9c1.4-0.2,2.3,0.5,2.3,1.8c0,0,0,0.1,0,0.2c0.3-0.5,0.6-1,0.9-1.5
		c0.1-0.2,0.2-0.3,0.3-0.5c0.2-0.2,0.4-0.2,0.6,0c0.4,0.6,0.5,1.3,0.4,1.9c-0.1,0.7-0.4,1.4-0.7,2c-0.8,1.4-1.7,2.8-2.4,4.3
		C26.4,52,26,52.8,26,53.7c0,0.7,0.4,1,1.1,0.8c0.5-0.1,0.8-0.4,1.2-0.7c0.6-0.5,1.1-1.1,1.5-1.8c0-0.1,0.1-0.1,0.1-0.2
		c0.9-2.7,2.2-5.2,3.5-7.7c1.4-2.8,2.9-5.5,4.6-8.1c0.2-0.3,0.3-0.5,0.6-0.7c0.3-0.3,0.5-0.2,0.7,0.1c0.3,0.6,0.3,1.3,0.1,2
		c-0.2,0.8-0.6,1.5-1,2.2C37.6,41,36.7,42.5,36,44.1C35.9,44.1,35.9,44.1,36,44.1C35.9,44.1,35.9,44.1,36,44.1z M26.8,45.5
		c0-0.9-0.3-1.2-1-0.9c-0.2,0.1-0.5,0.2-0.7,0.4c-0.9,0.6-1.6,1.4-2.3,2.2c-1.2,1.5-2.2,3-2.6,4.9c-0.1,0.5-0.2,1-0.1,1.6
		c0.1,0.5,0.4,0.7,0.9,0.6c0.3,0,0.5-0.2,0.8-0.3c0.5-0.3,0.9-0.8,1.3-1.2c1.3-1.6,2.3-3.4,3.2-5.3C26.5,46.7,26.8,46,26.8,45.5z
		 M45.2,49.3c0.5,0,1-0.3,1.4-0.7c1-0.9,1.7-1.9,2.2-3.1c0.1-0.3,0.2-0.5,0.2-0.8c0-0.4-0.2-0.6-0.6-0.5c-0.3,0.1-0.6,0.2-0.9,0.4
		c-1.5,1-2.6,2.5-3.4,4.1c-0.1,0.1,0,0.2,0.1,0.3C44.5,49.3,44.8,49.3,45.2,49.3z"/>
	<path class="st0" d="M85.2,13.6c0.3-0.4,0.5-0.8,0.8-1.2c2.4-3.9,4.8-7.7,7.2-11.6c0.1-0.2,0.2-0.3,0.4-0.3c2.3,0,4.5,0,6.8,0
		c0.2,0,0.3,0,0.3,0.3c0,10.1,0,20.3,0,30.4c0,0.2,0,0.3-0.3,0.3c-2.1,0-4.1,0-6.2,0c-0.3,0-0.3-0.1-0.3-0.3c0-6.5,0-13,0-19.4
		c0-0.1,0-0.2,0-0.4c-0.2,0.3-0.3,0.5-0.4,0.6c-2.7,4.1-5.4,8.2-8.1,12.3c-0.2,0.3-0.3,0.3-0.5,0c-2.8-4.2-5.5-8.4-8.3-12.5
		c0-0.1-0.1-0.1-0.2-0.3c0,0.2,0,0.3,0,0.4c0,6.4,0,12.8,0,19.3c0,0.3-0.1,0.4-0.4,0.4c-2,0-4.1,0-6.1,0c-0.2,0-0.3,0-0.3-0.3
		c0-10.2,0-20.3,0-30.5c0-0.2,0-0.3,0.3-0.3c2.3,0,4.6,0,6.8,0c0.2,0,0.3,0.1,0.4,0.3c2.6,4.2,5.2,8.3,7.8,12.5
		C85,13.4,85.1,13.5,85.2,13.6z"/>
	<path class="st0" d="M167.9,31.5c-0.1,0-0.2,0-0.3,0c-2.2,0-4.4,0-6.5,0c-0.2,0-0.3-0.1-0.4-0.3c-0.9-2.1-1.7-4.3-2.6-6.4
		c-0.1-0.2-0.2-0.3-0.4-0.3c-4.2,0-8.4,0-12.5,0c-0.2,0-0.3,0.1-0.4,0.3c-0.9,2.2-1.7,4.3-2.6,6.4c-0.1,0.2-0.1,0.3-0.3,0.3
		c-2.2,0-4.4,0-6.6,0c0,0-0.1,0-0.2,0c0.2-0.4,0.3-0.7,0.5-1.1c4.2-9.9,8.5-19.9,12.7-29.8c0.1-0.2,0.2-0.3,0.4-0.3
		c1.9,0,3.9,0,5.8,0c0.2,0,0.3,0,0.4,0.2c4.4,10.3,8.7,20.5,13.1,30.8C167.9,31.4,167.9,31.4,167.9,31.5z M147.3,18.5
		C147.3,18.5,147.4,18.6,147.3,18.5c2.7,0,5.3,0,8,0c0.3,0,0.2-0.1,0.1-0.3c-0.8-1.9-1.5-3.7-2.3-5.6c-0.6-1.4-1.1-2.8-1.7-4.2
		C150,11.9,148.6,15.2,147.3,18.5z"/>
	<path class="st0" d="M64.9,31.5c-2.4,0-4.7,0-7,0c-0.2,0-0.2-0.1-0.3-0.2c-0.9-2.1-1.7-4.3-2.6-6.4c-0.1-0.3-0.2-0.3-0.5-0.3
		c-4.1,0-8.3,0-12.4,0c-0.3,0-0.4,0.1-0.5,0.3c-0.9,2.1-1.7,4.3-2.6,6.4c-0.1,0.1-0.1,0.2-0.3,0.2c-2.2,0-4.4,0-6.7,0c0,0,0,0-0.1,0
		c0.2-0.4,0.3-0.7,0.4-1.1c3.7-8.6,7.3-17.2,11-25.8c0.6-1.3,1.1-2.7,1.7-4c0.1-0.2,0.2-0.3,0.5-0.3c1.9,0,3.8,0,5.7,0
		c0.2,0,0.3,0,0.4,0.3c4.3,10.1,8.6,20.1,12.9,30.2C64.7,31,64.8,31.3,64.9,31.5z M44.2,18.6c2.7,0,5.3,0,8,0c0.3,0,0.2-0.2,0.1-0.3
		c-0.9-2.2-1.8-4.4-2.7-6.6c-0.4-1-0.8-2-1.3-3.1C47,11.9,45.6,15.2,44.2,18.6z"/>
	<path class="st0" d="M108.1,16c0-5,0-10.1,0-15.1c0-0.3,0.1-0.4,0.3-0.3c4.2,0,8.5,0,12.7,0c2.7,0,5.2,0.6,7.4,2.2
		c2.3,1.7,3.6,3.9,4,6.7c0.3,2,0.2,4-0.6,5.9c-1.2,3-3.4,4.9-6.4,6c-1.7,0.6-3.5,0.8-5.3,0.9c-1.6,0-3.3,0-4.9,0
		c-0.5,0-0.4-0.1-0.4,0.4c0,2.8,0,5.7,0,8.5c0,0.3,0,0.4-0.4,0.4c-2.1,0-4.1,0-6.2,0c-0.3,0-0.4,0-0.4-0.3
		C108.1,26.1,108.1,21.1,108.1,16z M114.9,11.4c0,1.4,0,2.9,0,4.3c0,0.3,0,0.4,0.4,0.4c1.6,0,3.2,0,4.8,0c0.5,0,0.9,0,1.4-0.1
		c1.2-0.2,2.2-0.6,3-1.5c1.1-1.2,1.4-2.6,1.2-4.2c-0.2-1.5-1.1-2.6-2.5-3.2c-0.8-0.4-1.7-0.5-2.6-0.5c-1.8,0-3.6,0-5.4,0
		c-0.2,0-0.3,0.1-0.3,0.3C114.9,8.4,114.9,9.9,114.9,11.4z"/>
	<path class="st1" d="M95.3,45.8c0.7-0.6,1.3-1.3,2.1-1.8c0.4-0.3,0.9-0.6,1.4-0.8c0.8-0.3,1.4-0.1,1.9,0.6c0.5,0.8,0.5,1.6,0.1,2.5
		c-0.5,0.9-1,1.8-1.5,2.7c-0.6,1-1.2,2-1.6,3.2c-0.1,0.4-0.2,0.9-0.2,1.4c0.1,0.7,0.6,1.1,1.3,0.8c0.4-0.2,0.8-0.4,1.1-0.7
		c0.8-0.8,1.4-1.7,2-2.7c0-0.1,0.1-0.2,0.1-0.2c0.9-2.8,2.6-4.9,4.9-6.7c0.6-0.5,1.4-0.8,2.2-1c1.4-0.3,2.1,0.3,2.4,1.7
		c0,0,0,0.1,0,0.2c0.3-0.5,0.6-1,0.9-1.4c0-0.1,0.1-0.2,0.2-0.2c0.2-0.3,0.5-0.3,0.7,0c0.3,0.5,0.4,1,0.4,1.6c0,0.6-0.2,1.2-0.5,1.7
		c-1.3,2.6-2.6,5.2-3.8,7.8c0,0.1-0.1,0.2-0.1,0.3c0,0,0,0,0,0.1c0,0,0,0,0,0c1-0.5,1.9-1.1,2.7-1.8c0.7-0.6,1.4-1.3,2-2
		c0.1-0.1,0.2-0.2,0.2-0.3c0.1-1.5,0.7-2.8,1.5-4c0.8-1.2,1.7-2.3,2.9-3.1c0.7-0.4,1.5-0.7,2.3-0.7c0.3,0,0.6,0.2,0.9,0.4
		c0.3,0.2,0.5,0.4,0.8,0.6c1,0.8,1.2,1.8,0.9,3c-0.5,1.5-1.4,2.6-2.7,3.4c-1.3,0.7-2.5,0.5-3.7-0.3c-0.3-0.2-0.3-0.2-0.4,0.2
		c-0.2,0.7-0.3,1.5-0.3,2.3c0.1,1.5,1.1,2.3,2.6,2c1.1-0.2,2-0.8,2.9-1.5c0.8-0.8,1.6-1.6,2.2-2.6c0.1-0.1,0.2-0.3,0.4-0.3
		c0.2,0.1,0.2,0.3,0.2,0.5c0,0.6-0.2,1.1-0.5,1.5c-1.4,2-3.3,3.1-5.7,3.3c-1.4,0.1-2.7-0.3-3.6-1.5c-0.3-0.4-0.5-0.9-0.7-1.4
		c-0.8,1-1.7,1.7-2.7,2.4c-0.8,0.5-1.7,0.9-2.7,1.2c-0.2,0.1-0.3,0.2-0.4,0.4c-0.9,2.1-1.8,4.2-2.9,6.2c-0.6,1-1.3,2-2.3,2.8
		c-0.3,0.2-0.6,0.4-1,0.6c-0.5,0.2-1,0.1-1.4-0.3c-1.1-1.2-1.4-2.6-0.8-4.2c0.6-1.6,1.6-2.7,2.9-3.7c1-0.7,2.1-1.3,3.3-1.8
		c0.2-0.1,0.3-0.2,0.3-0.3c0.2-0.5,0.4-1,0.6-1.6c0,0,0-0.1,0-0.1c0,0,0,0-0.1,0c-0.6,0.5-1.2,1-2,1.2c-1.6,0.4-2.7-0.2-3.2-1.8
		c-0.1,0-0.2,0.1-0.2,0.2c-0.8,0.9-1.8,1.6-3,1.8c-0.9,0.1-1.8,0.1-2.6-0.6c-0.4-0.4-0.6-0.9-0.7-1.5c-0.1-1.3,0.3-2.4,0.9-3.6
		c0.6-1.4,1.4-2.6,2.2-3.9c0.2-0.3,0.3-0.6,0.4-0.9c0-0.1,0.1-0.2,0-0.3c-0.1-0.1-0.2-0.1-0.3,0c-0.6,0.2-1.1,0.5-1.6,0.9
		c-2,1.4-3.4,3.3-4.5,5.5c-0.7,1.3-1.3,2.6-1.9,4c-0.2,0.5-0.4,0.5-0.8,0.1c-0.1-0.1-0.2-0.3-0.2-0.4c-0.1-0.3-0.2-0.2-0.3-0.1
		c-0.6,0.5-1.3,0.8-2,0.9c-1.6,0.1-2.7-0.7-2.8-2.2c-0.3,0.2-0.6,0.5-0.9,0.8c-0.7,0.7-1.5,1.2-2.6,1.3c-1.2,0.1-2.2-0.5-2.6-1.7
		c0-0.1-0.1-0.3-0.1-0.4c-0.2,0.1-0.3,0.3-0.4,0.4c-0.8,0.8-1.7,1.4-2.8,1.7c-0.6,0.1-1.1,0.1-1.7-0.1c-1.2-0.3-1.8-1.3-1.6-2.7
		c0.2-1.5,0.8-2.9,1.5-4.2c0.6-1,1.2-2,1.8-3c0.1-0.2,0.2-0.4,0.2-0.6c0-0.2,0-0.3-0.2-0.2c-0.3,0.1-0.6,0.2-0.8,0.4
		c-1.8,1.1-3.3,2.5-4.4,4.4c-1.1,1.8-2.1,3.6-2.9,5.6c-0.1,0.1-0.1,0.3-0.3,0.3c-0.2,0-0.3-0.1-0.4-0.3c-0.3-0.3-0.3-0.7-0.4-1.2
		c-0.1,0-0.2,0.1-0.3,0.2c-1.3,0.9-2.7,1.5-4.4,1.4c-2-0.1-3.4-1.4-3.7-3.4c-0.1-1.2,0.1-2.4,0.6-3.5c0.8-1.8,1.9-3.4,3.5-4.5
		c0.6-0.5,1.3-0.8,2.1-0.9c0.5-0.1,0.9,0,1.3,0.3c0.5,0.3,0.9,0.7,1.3,1.1c0.5,0.6,0.6,1.3,0.4,2c-0.1,0.5-0.3,1-0.6,1.5
		c-0.2,0.5-0.5,1.1-0.7,1.6c-0.1,0.3-0.3,0.4-0.6,0.2c-0.6-0.3-0.9-0.7-0.9-1.3c-0.1-0.7,0.1-1.3,0.4-1.9c0.2-0.4,0.4-0.8,0.5-1.2
		c0.1-0.2,0.1-0.4,0.2-0.6c0.1-0.3-0.1-0.5-0.5-0.4c-0.5,0.1-0.8,0.5-1.2,0.8c-1.7,1.6-2.9,3.5-3.4,5.8c-0.1,0.6-0.2,1.2-0.1,1.7
		c0.1,1.4,1,2,2.4,1.8c1.3-0.2,2.3-0.9,3.2-1.8c0.6-0.5,1-1.1,1.3-1.8c1.4-3,3.1-5.9,4.8-8.8c1.3-2.1,2.6-4.2,4-6.2
		c0.1-0.2,0.3-0.4,0.4-0.5c0.1-0.2,0.2-0.3,0.5-0.3c0.2,0,0.3,0.2,0.4,0.4c0.2,0.6,0.2,1.3,0,1.9c-0.2,0.9-0.6,1.6-1,2.4
		c-1,1.6-2.1,3.2-3.1,4.9c-0.1,0.1-0.1,0.2-0.1,0.2c0,0-0.1,0.1,0,0.1c0,0,0,0,0.1,0c0.7-0.5,1.3-1.1,2.1-1.4c0,0,0,0,0,0
		c0.6-0.3,1.2-0.5,1.7-0.1c0.7,0.5,0.9,1.1,0.9,1.9c0,0.5-0.3,1-0.5,1.5c-0.7,1.4-1.6,2.7-2.3,4c-0.4,0.8-0.7,1.5-0.8,2.4
		c0,0.5,0,0.9,0.5,1.2c0.5,0.3,0.9,0.1,1.3-0.2c0.6-0.4,1.1-0.9,1.5-1.5c0.6-0.9,1.2-1.8,1.6-2.8c0.6-1.8,1.8-3.2,3-4.5
		c0.8-0.9,1.8-1.7,2.9-2.2c0.5-0.2,1-0.4,1.5-0.4c0.9,0,1.6,0.6,1.8,1.5c0,0.2,0,0.3,0.1,0.5c0.2-0.1,0.2-0.3,0.3-0.5
		c0.2-0.4,0.5-0.9,0.8-1.2c0.3-0.4,0.6-0.4,0.8,0.1c0.4,0.8,0.4,1.5,0.2,2.4c-0.2,0.6-0.5,1.1-0.8,1.7c-0.8,1.4-1.7,2.7-2.4,4.2
		c-0.3,0.7-0.6,1.3-0.6,2.1c0,0.9,0.5,1.2,1.3,0.9c0.8-0.4,1.4-1,2-1.7c0,0,0-0.1,0.1-0.1c0.6-2.1,1.7-4,2.8-5.9
		c0.7-1.2,1.4-2.3,2.1-3.4c0.1-0.2,0.2-0.4,0.4-0.3c0.2,0,0.3,0.2,0.4,0.4c0.3,0.7,0.3,1.5,0.1,2.2C95.3,45.6,95.3,45.7,95.3,45.8
		C95.2,45.8,95.2,45.8,95.3,45.8C95.2,45.8,95.2,45.8,95.3,45.8C95.2,45.8,95.2,45.8,95.3,45.8z M105.7,57.2
		c-2.2,1.4-3.8,3.2-4.5,5.7c-0.1,0.3-0.1,0.6-0.1,0.9c0,0.1,0,0.3,0.1,0.4c0.1,0.1,0.3,0,0.4-0.1c0.2-0.1,0.3-0.3,0.5-0.5
		c0.5-0.6,1-1.3,1.4-2C104.3,60.3,105.1,58.8,105.7,57.2C105.7,57.2,105.8,57.2,105.7,57.2C105.7,57.2,105.7,57.2,105.7,57.2z
		 M80.2,53.1c0,0.1,0,0.3,0,0.4c0.1,0.6,0.5,0.8,1.1,0.7c0.5-0.2,0.9-0.5,1.3-0.9c1.8-1.9,3.1-4.2,4.1-6.7c0.2-0.5,0.3-1,0.3-1.6
		c0-0.5-0.3-0.7-0.8-0.6c-0.4,0.1-0.7,0.3-1,0.5c-1.7,1.3-3,3-4,4.9C80.6,50.9,80.2,52,80.2,53.1z M110.6,45.4c0-0.8-0.3-1-1-0.8
		c-0.2,0.1-0.4,0.2-0.6,0.3c-0.6,0.4-1.2,0.9-1.7,1.5c-1.4,1.5-2.5,3.1-3.2,5c-0.2,0.6-0.4,1.3-0.3,2c0.1,0.7,0.5,0.9,1.1,0.7
		c0.2-0.1,0.3-0.1,0.5-0.2c0.5-0.3,0.8-0.7,1.2-1.1c1.4-1.7,2.5-3.6,3.4-5.6C110.3,46.7,110.5,46,110.6,45.4z M118,49.3
		c0.4,0,0.9-0.2,1.4-0.5c0.9-0.7,1.6-1.7,2.1-2.7c0.2-0.4,0.4-0.8,0.5-1.3c0.1-0.5-0.2-0.7-0.7-0.5c-0.4,0.1-0.7,0.3-1,0.5
		c-1.3,0.9-2.2,2.2-3,3.6c-0.4,0.7-0.3,0.8,0.5,0.9C117.9,49.3,117.9,49.3,118,49.3z"/>
	<path class="st1" d="M136,44.8c0.5-0.4,1-0.8,1.6-1.2c0.3-0.2,0.6-0.4,1-0.5c0.8-0.3,1.4-0.1,1.9,0.7c0.5,0.8,0.4,1.6,0.1,2.4
		c-0.5,1.1-1.2,2.1-1.8,3.2c-0.6,1-1.2,2-1.4,3.1c-0.1,0.3-0.1,0.7,0,1c0.1,0.6,0.6,1,1.2,0.8c0.6-0.2,1.1-0.6,1.5-1
		c0.7-0.7,1.2-1.5,1.7-2.4c0.1-0.2,0.2-0.4,0.3-0.6c0.5-1.6,1.5-3,2.6-4.3c0.9-1,1.9-1.9,3.1-2.6c0.6-0.3,1.2-0.5,1.8-0.5
		c1,0,1.8,0.7,1.9,1.7c0,0.1,0,0.2,0,0.3c0.1,0,0.1-0.1,0.2-0.2c0.3-0.5,0.6-1,0.9-1.5c0.3-0.4,0.6-0.4,0.9,0
		c0.4,0.8,0.4,1.6,0.1,2.5c-0.3,0.9-0.8,1.7-1.3,2.5c-0.7,1.3-1.6,2.6-2.1,4c-0.2,0.5-0.3,1-0.3,1.5c0,0.7,0.4,1,1.1,0.8
		c0.4-0.1,0.8-0.4,1.1-0.6c0.8-0.7,1.3-1.6,1.7-2.5c1.3-2.6,2.7-5.1,4.3-7.6c0.2-0.2,0.3-0.5,0.5-0.7c0.3-0.3,0.5-0.2,0.7,0.1
		c0.2,0.4,0.2,0.8,0.2,1.2c0.1,0,0.2-0.1,0.2-0.1c0.4-0.3,0.9-0.6,1.4-0.9c1.6-0.7,3,0.1,3.4,1.7c0.2,1,0.1,1.9-0.1,2.9
		c-0.6,2-1.4,3.9-2.8,5.6c-0.2,0.2-0.3,0.4-0.5,0.5c-0.2,0.2-0.4,0.3-0.6,0.5c0.3,0.1,0.5,0,0.8-0.1c1.9-0.5,3.2-1.5,4.1-3.2
		c1.4-2.6,2.7-5.2,4.4-7.6c0.1-0.2,0.3-0.4,0.5-0.6c0.3-0.3,0.5-0.2,0.7,0.1c0.2,0.4,0.2,0.8,0.2,1.2c0.2,0,0.2-0.1,0.3-0.2
		c0.4-0.3,0.9-0.6,1.4-0.8c1.4-0.5,2.7,0.1,3.2,1.5c0.3,1,0.3,2,0,3c-0.6,2.1-1.4,4.1-2.9,5.8c-0.2,0.2-0.3,0.3-0.5,0.5
		c-0.2,0.1-0.3,0.3-0.5,0.4c0.3,0.1,0.5,0,0.8-0.1c1.8-0.4,3.1-1.5,4.1-3c0.3-0.5,0.5-1,0.7-1.6c0.6-2.8,2.1-5.1,4.6-6.6
		c0.6-0.3,1.2-0.5,1.9-0.5c0.7,0,1.3,0.5,1.8,0.9c1,0.9,1.4,1.4,0.9,3.1c-0.4,1.3-1.2,2.3-2.4,3.1c-1.2,0.8-2.4,0.8-3.6,0.1
		c-0.2-0.1-0.4-0.3-0.6-0.4c-0.2,0.5-0.3,1-0.4,1.5c-0.1,0.7-0.1,1.4,0.2,2.1c0.3,0.7,0.9,1.1,1.7,1.2c1.1,0,2.1-0.4,3-1.1
		c0.6-0.4,1-0.9,1.5-1.4c0.2-0.2,0.3-0.5,0.5-0.7c1.1-2.6,2.5-5,4.1-7.4c0.2-0.2,0.3-0.5,0.5-0.7c0.2-0.3,0.5-0.3,0.7,0
		c0.4,0.6,0.4,1.3,0.3,2c0,0.2-0.1,0.4-0.1,0.7c0,0,0,0,0,0c0,0,0,0,0,0c0,0,0,0,0,0c0.6-0.5,1.2-1.1,1.8-1.6c0.5-0.4,1-0.7,1.6-1
		c0.8-0.4,1.5-0.1,2,0.6c0.4,0.7,0.4,1.5,0.1,2.3c-0.3,0.7-0.7,1.4-1.1,2.1c-0.6,1-1.2,2-1.7,3.1c-0.3,0.7-0.6,1.5-0.5,2.3
		c0.1,0.7,0.6,1,1.3,0.8c0.6-0.2,1-0.6,1.4-1c0.8-0.9,1.4-1.9,2-2.9c0.1-0.2,0.2-0.5,0.4-0.4c0.3,0.1,0.3,0.3,0.3,0.6
		c0,0.4-0.1,0.8-0.2,1.2c-0.8,1.8-2.1,3-4,3.5c-0.6,0.1-1.2,0.1-1.8-0.1c-0.9-0.3-1.4-1-1.4-2c-0.1-0.9,0.1-1.7,0.4-2.6
		c0.6-1.5,1.4-2.9,2.3-4.3c0.3-0.4,0.5-0.9,0.7-1.3c0.1-0.2,0.2-0.4,0.1-0.5c-0.1-0.1-0.3,0-0.5,0.1c-0.9,0.4-1.7,1-2.4,1.7
		c-1.7,1.5-2.8,3.3-3.8,5.3c-0.6,1.1-1.1,2.2-1.6,3.4c-0.2,0.5-0.4,0.5-0.8,0.1c-0.3-0.3-0.4-0.6-0.5-1.2c-0.1,0-0.2,0.1-0.2,0.1
		c-1.3,0.9-2.6,1.5-4.2,1.5c-1.7,0-3.2-0.7-3.8-2.5c0,0,0-0.1-0.1-0.2c-0.3,0.4-0.5,0.7-0.9,1c-1.1,1-2.4,1.6-3.8,1.8
		c-0.9,0.1-1.8,0.1-2.6,0c-1.6-0.3-2.8-1.2-3.2-2.9c-0.1,0.1-0.2,0.2-0.2,0.3c-1.5,2.8-2.9,5.6-4.1,8.4c-0.1,0.2-0.1,0.3-0.3,0.4
		c-0.2,0-0.3-0.2-0.4-0.3c-0.4-0.7-0.3-1.4-0.2-2.2c0.3-1.4,0.9-2.7,1.5-3.9c0-0.1,0.1-0.2,0.1-0.3c0,0,0,0,0-0.1c0,0,0,0-0.1,0
		c-1.2,0.6-2.6,0.7-3.9,0.7c-1.4-0.1-2.6-0.5-3.5-1.6c-0.3-0.4-0.5-0.9-0.6-1.5c-0.4,0.7-0.7,1.3-1,2c-1.2,2.3-2.3,4.5-3.3,6.9
		c-0.1,0.2-0.1,0.3-0.3,0.4c-0.2,0-0.3-0.2-0.4-0.3c-0.4-0.7-0.3-1.5-0.2-2.3c0.3-1.3,0.8-2.4,1.3-3.6c0-0.1,0.1-0.2,0.1-0.3
		c0,0,0,0,0,0c0,0,0,0,0,0c0,0,0,0,0,0c-0.2,0-0.3,0.1-0.4,0.1c-0.7,0.2-1.4,0.2-2.1-0.1c-0.8-0.3-1.2-1-1.3-1.8c0-0.1,0-0.2,0-0.3
		c-0.4,0.4-0.7,0.8-1.1,1.1c-0.7,0.6-1.4,1.1-2.4,1.2c-1.3,0.1-2.3-0.5-2.6-1.8c0-0.1,0-0.2-0.1-0.3c-0.2,0.2-0.4,0.5-0.7,0.7
		c-0.9,0.8-1.8,1.4-3,1.5c-0.6,0-1.1,0-1.6-0.3c-0.7-0.4-1.1-1-1.1-1.8c-0.1-1,0.2-1.9,0.5-2.8c0.6-1.5,1.4-2.8,2.2-4.1
		c0.3-0.4,0.5-0.8,0.7-1.3c0.1-0.1,0.2-0.3,0-0.4c-0.1-0.1-0.3,0-0.4,0c-0.9,0.4-1.6,0.9-2.3,1.5c-1.7,1.4-2.9,3.2-3.9,5.1
		c-0.6,1.2-1.2,2.4-1.7,3.6c-0.1,0.1-0.1,0.3-0.3,0.3c-0.2,0-0.3-0.1-0.4-0.3c-0.5-0.7-0.4-1.4-0.3-2.1c0.2-1,0.6-1.9,1-2.7
		c2.5-5,5.4-9.8,8.6-14.3c0.1-0.2,0.3-0.4,0.4-0.5c0.1-0.2,0.2-0.3,0.5-0.3c0.2,0,0.3,0.2,0.3,0.4c0.3,0.7,0.2,1.4,0,2.1
		c-0.2,0.9-0.7,1.7-1.2,2.5c-1,1.5-2,3.1-3,4.6C136,44.6,135.9,44.7,136,44.8C136,44.8,135.9,44.8,136,44.8
		C135.9,44.9,135.9,44.9,136,44.8C136,44.9,136,44.9,136,44.8z M168.2,51.9c0,0.6,0,1.1,0.3,1.5c0.3,0.5,0.7,0.6,1.2,0.4
		c0.3-0.2,0.6-0.4,0.9-0.6c1.7-1.8,2.8-3.9,3.4-6.2c0.2-0.7,0.3-1.4,0.2-2.1c-0.1-0.6-0.4-0.8-1-0.6c-0.5,0.2-1,0.6-1.4,1
		c-1.1,1.1-1.9,2.4-2.7,3.7C168.4,50,168.2,51,168.2,51.9z M156.5,51.9c0,0.7,0.1,1.2,0.3,1.5c0.3,0.5,0.7,0.7,1.3,0.4
		c0.4-0.2,0.8-0.5,1.1-0.8c1.5-1.6,2.5-3.5,3.1-5.6c0.2-0.8,0.4-1.6,0.3-2.4c-0.1-0.7-0.5-0.9-1.1-0.7c-0.1,0-0.2,0.1-0.3,0.2
		c-0.5,0.3-1,0.7-1.4,1.2c-0.9,1-1.6,2.1-2.3,3.3C156.8,49.9,156.6,51,156.5,51.9z M143.7,53.1c0,0.2,0,0.3,0,0.4
		c0.1,0.7,0.4,0.9,1.1,0.7c0.2-0.1,0.4-0.2,0.5-0.3c0.4-0.3,0.8-0.6,1.1-1c1.5-1.7,2.6-3.6,3.5-5.7c0.3-0.6,0.5-1.3,0.5-2
		c0.1-0.7-0.3-1-1-0.8c-0.4,0.1-0.7,0.3-1,0.6c-1.7,1.4-3,3.1-4,5.1C144.1,51.2,143.8,52.1,143.7,53.1z M181.3,49.3
		c0.6,0,1-0.2,1.4-0.6c0.9-0.8,1.6-1.7,2.1-2.8c0.2-0.4,0.4-0.8,0.4-1.2c0-0.4-0.2-0.6-0.6-0.5c-0.4,0.1-0.7,0.3-1,0.5
		c-1.3,1-2.3,2.2-3.1,3.7c-0.3,0.7-0.2,0.8,0.5,0.9C181.2,49.3,181.2,49.3,181.3,49.3z"/>
	<path class="st1" d="M185.2,10c0.9-1.3,1.8-2.6,2.7-3.9c1.2-1.7,2.4-3.5,3.7-5.3c0.1-0.2,0.3-0.3,0.5-0.3c2.4,0,4.7,0,7.1,0
		c0.1,0,0.2,0,0.3,0c0,0.2-0.1,0.2-0.2,0.3c-3.4,4.8-6.7,9.7-10.1,14.5c-0.1,0.1-0.1,0.2-0.2,0.3c-0.5,0.7-1,1.4-1.4,2.1
		c-0.9,1.2-1.7,2.5-2.6,3.7c-1,1.5-2,2.9-3.1,4.4c-1.3,1.8-2.5,3.6-3.8,5.4c-0.1,0.1-0.1,0.1-0.2,0.3c-2.1-4.3-4.2-8.6-6.2-13
		c0.4,0,0.8,0,1.2,0c0.1,0,0.1,0,0.2,0c0.4,0,0.9-0.1,1.2,0c0.4,0.2,0.6,0.6,0.9,0.9c0.5,0.6,1.1,1.2,1.6,1.9c0.1,0.1,0.2,0.2,0.3,0
		c1.3-1.9,2.6-3.7,3.9-5.6c0,0,0-0.1,0.1-0.1c0.5-0.6,1-1.3,1.4-2C183.5,12.5,184.4,11.2,185.2,10z"/>
	<path class="st0" d="M185.1,21.4c0.9-1.2,1.7-2.5,2.6-3.7c0.5-0.7,1-1.4,1.4-2.1c3.6,5.3,7.2,10.6,10.9,15.8
		c-0.1,0.1-0.2,0.1-0.2,0.1c-2.5,0-5,0-7.5,0c-0.3,0-0.4-0.1-0.5-0.3C189.6,28,187.4,24.7,185.1,21.4z"/>
	<path class="st0" d="M185.2,10c-0.9,1.3-1.7,2.5-2.6,3.8c-0.5,0.7-0.9,1.4-1.4,2c-3.5-5-6.9-10.1-10.4-15.1
		c0.1-0.1,0.2-0.1,0.3-0.1c2.5,0,5,0,7.4,0c0.2,0,0.3,0,0.4,0.2C181,3.8,183.1,6.8,185.2,10C185.2,9.9,185.2,9.9,185.2,10z"/>
</g>
</svg>
