<?xml version="1.0" encoding="UTF-8" standalone="no"?>
<svg
   xmlns:dc="http://purl.org/dc/elements/1.1/"
   xmlns:cc="http://creativecommons.org/ns#"
   xmlns:rdf="http://www.w3.org/1999/02/22-rdf-syntax-ns#"
   xmlns:svg="http://www.w3.org/2000/svg"
   xmlns="http://www.w3.org/2000/svg"
   version="1.1"
   id="svg2"
   xml:space="preserve"
   width="317.50668"
   height="195.60001"
   viewBox="0 0 317.50668 195.60001"><metadata
     id="metadata8"><rdf:RDF><cc:Work
         rdf:about=""><dc:format>image/svg+xml</dc:format><dc:type
           rdf:resource="http://purl.org/dc/dcmitype/StillImage" /><dc:title></dc:title></cc:Work></rdf:RDF></metadata><defs
     id="defs6" /><g
     id="g10"
     transform="matrix(1.3333333,0,0,-1.3333333,0,195.6)"><g
       id="g12"
       transform="scale(0.1)"><path
         d="m 873.195,456.609 c 130.495,9.27 415.985,-48.699 439.735,-49.328 21.58,0.52 21.86,16.93 19.04,31.899 -11.62,61.578 -21.95,123.824 -40.68,183.16 -32.48,102.914 -61.37,207.64 -111.86,303.578 -57.57,109.382 -115.92,218.532 -192.856,316.962 -6.695,8.56 -13.336,17.67 -28.082,10.63 -4.297,-2.38 -8.832,-4.9 -11.398,-8.99 -17.016,-27.11 -54.426,-79.98 -54.426,-79.98 0,0 -224.613,-300.938 -395.703,-402.356 -36.832,-21.832 -26.16,-45.786 -10.953,-65.774 31.211,-41.027 53.539,-85.941 73.625,-132.66 15.41,-35.844 25.801,-72.652 31.937,-111.352 4.063,-25.609 15.516,-46.886 52.293,-35.238 75.223,23.82 152.426,30.32 229.328,39.449"
         style="fill:#82b623;fill-opacity:1;fill-rule:nonzero;stroke:none"
         id="path14" /><path
         d="M 714.93,55.5586 C 700.586,46 686.262,40.8594 672.656,40.8594 c -2.933,0 -4.035,0.7422 -4.035,3.6797 v 31.2226 c 0,4.418 4.035,3.6797 13.602,5.8867 10.652,2.5704 18.004,12.1329 18.004,23.8906 v 186.313 c 0,2.558 1.093,3.668 3.675,3.668 h 34.543 c 2.2,0 3.68,-1.11 3.68,-3.668 V 108.84 c 0,-21.6798 -10.289,-41.8791 -27.195,-53.2814"
         style="fill:#82b623;fill-opacity:1;fill-rule:nonzero;stroke:none"
         id="path16" /><path
         d="m 906.363,127.219 h -31.242 c -5.141,0 -2.937,7.34 -6.234,7.34 -4.422,0 -13.242,-7.34 -29.782,-7.34 -38.207,0 -65.769,26.461 -65.769,65.043 v 99.59 c 0,2.558 1.105,3.668 3.672,3.668 h 34.914 c 2.207,0 3.668,-1.11 3.668,-3.668 v -99.59 c 0,-15.071 11.023,-26.461 26.094,-26.461 15.07,0 26.464,11.758 26.464,26.461 v 99.59 c 0,2.558 1.098,3.668 3.668,3.668 h 34.547 c 2.2,0 3.668,-1.11 3.668,-3.668 V 130.891 c 0,-2.571 -1.101,-3.672 -3.668,-3.672"
         style="fill:#82b623;fill-opacity:1;fill-rule:nonzero;stroke:none"
         id="path18" /><path
         d="m 1074.61,127.219 h -34.91 c -2.57,0 -3.67,1.101 -3.67,3.672 v 99.961 c 0,14.687 -11.02,26.078 -26.09,26.078 -15.436,0 -26.46,-11.391 -26.46,-26.078 v -99.961 c 0,-2.571 -1.109,-3.672 -3.675,-3.672 h -34.547 c -2.567,0 -3.664,1.101 -3.664,3.672 v 160.961 c 0,2.558 1.097,3.668 3.664,3.668 h 31.25 c 5.508,0 3.297,-7.348 6.234,-7.348 4.422,0 13.231,7.348 30.138,7.348 37.48,0 65.41,-26.45 65.41,-64.668 v -99.961 c 0,-2.571 -1.1,-3.672 -3.68,-3.672"
         style="fill:#82b623;fill-opacity:1;fill-rule:nonzero;stroke:none"
         id="path20" /><path
         d="m 1209.21,100.762 c 0,6.238 -4.42,10.648 -10.67,10.648 h -47.03 c -6.25,0 -10.67,-4.41 -10.67,-10.648 v -6.9807 c 0,-6.2618 4.42,-10.6719 10.67,-10.6719 h 47.03 c 5.88,0 10.67,4.789 10.67,10.6719 z m -15.81,130.09 c 0,14.687 -11.02,26.078 -26.1,26.078 -15.43,0 -26.46,-11.391 -26.46,-26.078 v -3.321 c 0,-14.699 11.03,-26.449 26.46,-26.449 14.71,0 26.1,11.75 26.1,26.449 z m 5.14,-186.3129 h -47.03 c -31.6,0 -52.91,20.9297 -52.91,49.2422 v 6.9807 c 0,13.957 6.23,21.308 13.58,30.129 3.68,4.039 6.25,5.879 6.25,8.089 0,2.2 -3.68,7.711 -3.68,17.629 0,10.661 5.16,17.641 5.16,20.582 0,1.11 -0.38,1.84 -1.11,2.571 -8.83,12.129 -20.2,23.16 -20.2,47.769 v 3.321 c 0,36.75 29.02,64.668 66.13,64.668 16.18,0 25.72,-7.348 30.14,-7.348 2.94,0 0.36,7.348 5.87,7.348 h 31.25 c 2.19,0 3.66,-1.11 3.66,-3.668 v -64.321 c 0,-38.582 -27.92,-65.043 -73.13,-65.043 h -5.5 c -1.84,-1.828 -2.58,-3.668 -2.58,-5.879 0,-2.199 1.11,-4.41 2.94,-6.609 h 41.16 c 31.6,0 52.91,-20.949 52.91,-49.238 v -6.9807 c 0,-28.3125 -21.67,-49.2422 -52.91,-49.2422"
         style="fill:#82b623;fill-opacity:1;fill-rule:nonzero;stroke:none"
         id="path22" /><path
         d="m 1352.92,239.672 c 0,9.91 -12.13,20.937 -25.36,20.937 -13.95,0 -25.72,-11.027 -25.72,-21.32 0,-2.187 1.1,-3.301 3.68,-3.301 h 43.73 c 2.57,0 3.67,1.114 3.67,3.684 z m 37.36,-38.961 h -87.47 c -2.57,0 -3.68,-1.102 -3.68,-3.672 v -8.457 c 0,-14.703 11.02,-26.461 26.45,-26.461 10.67,0 17.28,5.879 23.51,17.641 2.22,4.418 3.69,6.988 5.54,6.988 0.73,0 1.09,0 1.82,-0.371 l 31.99,-15.809 c 1.46,-0.73 2.2,-1.832 2.2,-2.941 0,-4.039 -5.52,-13.949 -18,-27.188 -10.67,-11.019 -26.47,-16.902 -47.06,-16.902 -41.52,0 -68.71,26.09 -68.71,65.043 v 45.566 c 0,11.391 3.67,23.891 10.28,33.813 13.25,19.84 34.56,31.23 58.43,31.23 23.51,0 45.21,-11.39 58.07,-31.23 6.63,-9.922 10.3,-22.422 10.3,-33.813 v -29.757 c 0,-2.582 -1.11,-3.68 -3.67,-3.68"
         style="fill:#82b623;fill-opacity:1;fill-rule:nonzero;stroke:none"
         id="path24" /><path
         d="m 1588.53,100.762 c 0,6.238 -4.41,10.648 -10.67,10.648 h -47.03 c -6.24,0 -10.67,-4.41 -10.67,-10.648 v -6.9807 c 0,-6.2618 4.43,-10.6719 10.67,-10.6719 h 47.03 c 5.9,0 10.67,4.789 10.67,10.6719 z m -15.81,130.09 c 0,14.687 -11.02,26.078 -26.07,26.078 -15.45,0 -26.49,-11.391 -26.49,-26.078 v -3.321 c 0,-14.699 11.04,-26.449 26.49,-26.449 14.68,0 26.07,11.75 26.07,26.449 z m 5.14,-186.3129 h -47.03 c -31.6,0 -52.91,20.9297 -52.91,49.2422 v 6.9807 c 0,13.957 6.23,21.308 13.59,30.129 3.67,4.039 6.25,5.879 6.25,8.089 0,2.2 -3.67,7.711 -3.67,17.629 0,10.661 5.14,17.641 5.14,20.582 0,1.11 -0.36,1.84 -1.11,2.571 -8.81,12.129 -20.2,23.16 -20.2,47.769 v 3.321 c 0,36.75 29.03,64.668 66.15,64.668 16.16,0 25.71,-7.348 30.13,-7.348 2.94,0 0.36,7.348 5.87,7.348 h 31.24 c 2.19,0 3.66,-1.11 3.66,-3.668 v -64.321 c 0,-38.582 -27.91,-65.043 -73.11,-65.043 h -5.52 c -1.83,-1.828 -2.58,-3.668 -2.58,-5.879 0,-2.199 1.11,-4.41 2.94,-6.609 h 41.16 c 31.61,0 52.92,-20.949 52.92,-49.238 v -6.9807 c 0,-28.3125 -21.68,-49.2422 -52.92,-49.2422"
         style="fill:#82b623;fill-opacity:1;fill-rule:nonzero;stroke:none"
         id="path26" /><path
         d="m 1736.19,249.219 c -4.78,0 -12.48,7.351 -22.78,7.351 -14.33,0 -25.36,-11.39 -25.36,-25.718 v -99.961 c 0,-2.571 -1.09,-3.672 -3.67,-3.672 h -34.54 c -2.59,0 -3.68,1.101 -3.68,3.672 v 160.961 c 0,2.558 1.09,3.668 3.68,3.668 h 31.24 c 2.55,0 3.66,-0.739 3.66,-3.301 v -5.149 c 0,-2.211 1.1,-3.308 3.31,-3.679 l 2.22,1.109 c 9.55,7.352 18.36,11.02 27.91,11.02 12.87,0 20.58,-2.938 20.58,-6.622 v -35.636 c 0,-2.571 -1.1,-4.043 -2.57,-4.043"
         style="fill:#82b623;fill-opacity:1;fill-rule:nonzero;stroke:none"
         id="path28" /><path
         d="m 1893.97,127.219 h -31.22 c -5.15,0 -2.95,7.34 -6.26,7.34 -4.41,0 -13.22,-7.34 -29.76,-7.34 -38.22,0 -65.77,26.461 -65.77,65.043 v 99.59 c 0,2.558 1.1,3.668 3.66,3.668 h 34.92 c 2.2,0 3.68,-1.11 3.68,-3.668 v -99.59 c 0,-15.071 11.01,-26.461 26.08,-26.461 15.07,0 26.47,11.758 26.47,26.461 v 99.59 c 0,2.558 1.09,3.668 3.67,3.668 h 34.53 c 2.21,0 3.69,-1.11 3.69,-3.668 V 130.891 c 0,-2.571 -1.11,-3.672 -3.69,-3.672"
         style="fill:#82b623;fill-opacity:1;fill-rule:nonzero;stroke:none"
         id="path30" /><path
         d="m 2016.45,239.672 c 0,9.91 -12.14,20.937 -25.37,20.937 -13.96,0 -25.71,-11.027 -25.71,-21.32 0,-2.187 1.08,-3.301 3.66,-3.301 h 43.73 c 2.57,0 3.69,1.114 3.69,3.684 z m 39.31,-38.961 h -87.47 c -2.56,0 -3.67,-1.102 -3.67,-3.672 v -8.457 c 0,-14.703 11.02,-26.461 26.46,-26.461 10.66,0 17.26,5.879 23.53,17.641 2.19,4.418 3.67,6.988 5.5,6.988 0.74,0 1.11,0 1.84,-0.371 l 31.97,-15.809 c 1.47,-0.73 2.21,-1.832 2.21,-2.941 0,-4.039 -5.52,-13.949 -18.01,-27.188 -10.67,-11.019 -26.47,-16.902 -47.04,-16.902 -41.52,0 -68.72,26.09 -68.72,65.043 v 45.566 c 0,11.391 3.68,23.891 10.29,33.813 13.23,19.84 34.54,31.23 58.43,31.23 23.53,0 45.2,-11.39 58.06,-31.23 6.62,-9.922 10.3,-22.422 10.3,-33.813 v -29.757 c 0,-2.582 -1.11,-3.68 -3.68,-3.68"
         style="fill:#82b623;fill-opacity:1;fill-rule:nonzero;stroke:none"
         id="path32" /><path
         d="m 2217.08,127.219 h -34.92 c -2.56,0 -3.67,1.101 -3.67,3.672 v 99.961 c 0,14.687 -11.02,26.078 -26.08,26.078 -15.44,0 -26.47,-11.391 -26.47,-26.078 v -99.961 c 0,-2.571 -1.09,-3.672 -3.67,-3.672 h -34.55 c -2.56,0 -3.67,1.101 -3.67,3.672 v 160.961 c 0,2.558 1.11,3.668 3.67,3.668 h 31.24 c 5.51,0 3.31,-7.348 6.26,-7.348 4.41,0 13.22,7.348 30.13,7.348 37.47,0 65.39,-26.45 65.39,-64.668 v -99.961 c 0,-2.571 -1.08,-3.672 -3.66,-3.672"
         style="fill:#82b623;fill-opacity:1;fill-rule:nonzero;stroke:none"
         id="path34" /><path
         d="m 2338.34,239.672 c 0,9.91 -12.12,20.937 -25.36,20.937 -13.95,0 -25.72,-11.027 -25.72,-21.32 0,-2.187 1.1,-3.301 3.69,-3.301 h 43.72 c 2.58,0 3.67,1.114 3.67,3.684 z m 39.32,-38.961 h -87.46 c -2.56,0 -3.67,-1.102 -3.67,-3.672 v -8.457 c 0,-14.703 11.03,-26.461 26.45,-26.461 10.66,0 17.28,5.879 23.53,17.641 2.19,4.418 3.67,6.988 5.5,6.988 0.74,0 1.11,0 1.85,-0.371 l 31.97,-15.809 c 1.47,-0.73 2.2,-1.832 2.2,-2.941 0,-4.039 -5.52,-13.949 -18,-27.188 -10.66,-11.019 -26.47,-16.902 -47.05,-16.902 -41.52,0 -68.72,26.09 -68.72,65.043 v 45.566 c 0,11.391 3.69,23.891 10.31,33.813 13.21,19.84 34.52,31.23 58.41,31.23 23.53,0 45.21,-11.39 58.07,-31.23 6.61,-9.922 10.29,-22.422 10.29,-33.813 v -29.757 c 0,-2.582 -1.11,-3.68 -3.68,-3.68"
         style="fill:#82b623;fill-opacity:1;fill-rule:nonzero;stroke:none"
         id="path36" /><path
         d="M 624.922,44.0508 C 624.922,19.7188 605.215,0 580.891,0 c -24.328,0 -44.047,19.7188 -44.047,44.0508 0,24.3281 19.719,44.0273 44.047,44.0273 24.324,0 44.031,-19.6992 44.031,-44.0273"
         style="fill:#82b623;fill-opacity:1;fill-rule:nonzero;stroke:none"
         id="path38" /><path
         d="m 1559.08,1064.47 c -13.9,-0.16 -24.98,-4.77 -36.06,-8.64 -23.57,-8.23 -44.97,-20.95 -66.02,-34.15 -5.43,-3.41 -8.36,-3.98 -12.7,1.76 -10.27,13.61 -10.49,16.63 2.46,27.22 22.02,18.02 46.78,31.8 71.61,45.38 14.08,7.7 28.59,14.62 42.81,22.08 25.82,13.55 53.53,19.6 82.4,21.59 33.85,2.33 67.66,3.56 101.31,-2.02 16.97,-2.81 33.9,-5.93 49.99,-12.4 13,-5.23 14.08,-8.38 6.22,-19.7 -25.57,-36.79 -55.69,-69.04 -94.05,-92.8 -28.63,-17.735 -58.92,-31.911 -90.74,-43.27 -44.1,-15.743 -89.22,-27.481 -134.71,-38.153 -4.82,-1.133 -7.39,-0.398 -8.42,4.27 -2,9.105 -3.82,18.254 -5.71,27.383 -1.07,5.203 2.65,6.566 6.38,7.746 15.3,4.843 30.63,9.57 45.93,14.433 12.84,4.086 25.37,8.938 36.58,16.611 2.55,1.75 5.4,3.4 6.88,7.84 -15.64,-5.71 -30.49,-11.13 -45.35,-16.541 -15.18,-5.527 -30.68,-9.664 -46.96,-9.57 -12.34,0.074 -18.21,7.043 -15.65,17.421 0.82,3.3 3.12,4.68 5.34,6.52 26.38,21.9 56.66,36.92 87.89,50.34 3.1,1.34 6.71,1.88 10.57,6.65"
         style="fill:#e10078;fill-opacity:1;fill-rule:nonzero;stroke:none"
         id="path40" /><path
         d="m 1562.34,811.492 c -0.77,0.387 -1.54,0.774 -2.31,1.16 -9.69,5.653 -65.81,23.887 -83.74,27.899 -5.82,1.301 -8.32,3.629 -6.64,10.308 4.09,16.254 8.08,19.231 25.16,17.922 43.2,-3.301 85.42,-11.918 127.5,-21.906 50.38,-11.957 91.37,-38.453 125.92,-76.453 19.29,-21.219 37.21,-43.391 53.65,-66.828 10.23,-14.582 7.2,-24.989 -9.53,-28.535 -45.97,-9.743 -92.14,-15.102 -138.82,-4.164 -23.57,5.523 -44.75,16.914 -66.71,26.343 -20.09,8.625 -40.68,16.117 -60.1,26.278 -27.24,14.254 -51.85,32.441 -76.38,50.754 -1.88,1.398 -3.77,2.769 -5.68,4.117 -10.41,7.351 -10.83,8.773 -4.97,17.004 6.76,9.488 12.17,10.492 21.18,3.789 6.79,-5.063 58.45,-30.289 59.22,-27.727 0.35,1.184 -4.84,4.281 -5.6,4.656 -7.83,4.883 -42.41,28.106 -51.6,35.164 -3.84,2.95 -7.83,6.391 -4.83,12.489 2.71,5.488 7.2,6.156 12.47,5.531 21.71,-2.578 42.71,-8.336 63.63,-14.41 7.12,-1.043 43.2,-15.863 49.2,-17.817 -7.59,3.989 -13.18,10.821 -21.02,14.426"
         style="fill:#e10078;fill-opacity:1;fill-rule:nonzero;stroke:none"
         id="path42" /><path
         d="m 1197.4,1116.77 c 0.81,-6.43 0.02,-12 -7.17,-15.13 -7.3,-3.18 -11.78,0.37 -15.86,5.33 -16.71,20.3 -32.39,41.3 -43.68,65.26 -1.37,2.9 -1.9,8.93 -5.39,7.55 -4.38,-1.73 -2.01,-7.26 -0.69,-10.93 6.38,-17.68 15.73,-33.83 25.86,-49.58 4.1,-6.37 8.78,-12.43 11.32,-19.69 1.94,-5.55 3.06,-11.58 -3.18,-14.68 -6.64,-3.31 -13.23,-9.68 -21.7,-3.54 -12.5,9.05 -21.45,21.38 -30.59,33.43 -20.36,26.84 -37.07,55.84 -50.76,86.66 -15.62,35.16 -19.28,71.84 -14.69,109.56 4.62,38.02 12.7,75.26 26.69,111.07 4.67,11.95 9.95,13.83 20.36,7.1 28.55,-18.48 54.81,-39.54 75.65,-66.76 15.66,-20.45 24.86,-43.95 33.24,-68.03 12.29,-35.32 23.64,-70.87 30.74,-107.63 3.88,-20.03 6.82,-40.22 7.55,-60.63 0.33,-9.24 -7.03,-14.81 -19.41,-15.06 -8.8,-0.17 -10.25,6.05 -10.51,13.05 -0.11,2.88 -0.41,5.76 -0.63,8.64 -0.92,9.26 -3.38,18.1 -7.29,26.53 -0.76,1.64 -1.93,3.53 -3.66,3.21 -2.09,-0.38 2.08,-31.96 3.8,-45.73"
         style="fill:#e10078;fill-opacity:1;fill-rule:nonzero;stroke:none"
         id="path44" /><path
         d="m 1365.2,627.406 c 0.35,7.883 -2.45,14.403 -4.53,20.821 -5.23,16.16 -8.22,32.839 -12.42,49.234 -0.79,3.074 -0.74,6.367 -1.04,9.562 -0.45,4.844 1.03,8.383 5.89,10.516 4.81,2.109 8.31,1.004 11.7,-2.66 12,-12.945 21.14,-27.91 29.9,-43.043 14.49,-25.012 28.88,-50.094 40.89,-76.445 0.68,-1.489 1.95,-2.711 3.47,-3.746 -6.86,31.269 -19.77,59.968 -34.84,87.941 -8.22,15.242 -18.46,29.059 -27.87,43.449 -3.24,4.965 -2.38,7.871 1.8,10.996 1.87,1.399 3.56,3.032 5.38,4.5 9.76,7.891 13.73,7.438 21.53,-2.48 20.21,-25.692 40.49,-51.481 54.96,-80.914 18.42,-37.481 37.18,-75.074 43.33,-117.09 4.62,-31.602 0.46,-62.859 -5.86,-93.856 -1.21,-5.961 -1.85,-12.07 -4.32,-17.812 -4.31,-10.039 -10.75,-13.449 -20.88,-9.93 -19.59,6.813 -36.75,18.02 -52.14,31.563 -20.68,18.199 -38.2,39.347 -52.32,62.996 -18.14,30.39 -33.64,61.894 -43.91,96.137 -7.49,24.968 -14.34,49.878 -17.98,75.668 -1.87,13.265 2.59,21.593 13.35,23.765 6.87,1.387 12.52,0.328 14.84,-8.035 5.25,-18.855 10.57,-37.723 19.17,-55.438 2.81,-5.777 5.69,-11.441 11.9,-15.699"
         style="fill:#e10078;fill-opacity:1;fill-rule:nonzero;stroke:none"
         id="path46" /><path
         d="m 1400.39,1160.83 c -1.01,-1.83 -33.45,-45.7 -37.97,-50.65 -4.01,-4.39 -8.92,-6.87 -14.87,-4.45 -6.06,2.48 -7.27,8.02 -7.38,13.77 -0.23,12.23 4.22,23.52 8.15,34.72 5.98,17.04 20.94,54.75 21.65,57.89 -3.65,-2.81 -35.49,-61.74 -43.45,-90.57 -1.63,-5.91 -4.43,-8.54 -10.51,-7.38 -8.02,1.54 -16.06,2.97 -24.07,4.58 -6.08,1.22 -8.88,4.94 -8.46,11.26 0.62,9.38 2.97,18.41 5.57,27.34 17.19,59.12 48.33,110.7 84.41,160.09 26.44,36.2 63.2,56.18 102.67,73 12.41,5.29 18.46,0.55 19.18,-13.12 1.24,-23.59 2.77,-47.15 0.95,-70.79 -2.27,-29.46 -10.63,-57.31 -22.11,-84.32 -19.79,-46.56 -45.12,-90.26 -69.65,-134.38 -3.44,-6.17 -7.1,-8.1 -13.24,-4.13 -1.21,0.78 -2.7,1.11 -4.01,1.77 -19.25,9.74 -20.46,15.66 -6.44,32.31 6.05,7.18 10.63,15.25 14.84,23.57 2.98,5.89 7.02,11.24 9.07,17.61 0.5,1.56 1.68,3.68 -0.31,4.53 -1.76,0.75 -2.75,-1.58 -4.02,-2.65"
         style="fill:#e10078;fill-opacity:1;fill-rule:nonzero;stroke:none"
         id="path48" /><path
         d="m 1666.81,588.98 c 9.22,-20.894 16.58,-42.417 21.6,-64.71 3.81,-16.879 -0.78,-23.34 -18.02,-22.985 -24.13,0.496 -47.23,7.047 -69.84,14.887 -25.2,8.734 -48.66,20.973 -70.91,35.84 -12.86,8.59 -21.55,19.418 -25.59,34.156 -11.33,41.336 -31.95,78.148 -54.67,114.082 -10.98,17.375 -22.93,33.742 -37.86,47.879 -5.93,5.609 -5.64,11.078 0.33,16.457 1.09,0.977 2.02,2.121 3.1,3.102 9.32,8.488 10.57,8.992 20.44,0.945 35.43,-28.91 75.99,-48.805 117.29,-67.426 19.43,-8.766 38.83,-17.609 58.48,-25.863 11.5,-4.828 16.78,-15.231 23.07,-24.43 13.22,-19.328 23.67,-40.262 32.58,-61.934"
         style="fill:#e10078;fill-opacity:1;fill-rule:nonzero;stroke:none"
         id="path50" /><path
         d="m 1687.17,984.766 c 18.18,-0.493 34.92,-6.84 51.48,-13.305 25.85,-10.102 51.74,-20.18 76.72,-32.359 2.88,-1.403 5.76,-2.899 8.37,-4.735 9.2,-6.476 9.73,-13.648 0.76,-20.437 -39.04,-29.563 -80.09,-55.582 -127.53,-69.778 -16.61,-4.968 -32.88,-2.754 -48.92,3.235 -26.54,9.914 -53.39,18.886 -81.22,24.535 -26.92,5.465 -54.16,8.664 -81.57,10.074 -5.53,0.285 -8.08,2.035 -8.91,7.106 1.7,4.558 6.02,5.234 9.84,6.07 24.56,5.383 48.78,12.707 74.2,13.598 -18.56,2.152 -36.64,-4.016 -55.11,-3.086 0,0 -13.5,-2.934 -20.46,-3.219 -4.28,-0.172 -8.37,-0.735 -9.49,4.926 -1.44,7.261 0.85,12.5 6.78,13.953 8.49,2.078 17.26,2.625 25.82,4.523 39.26,8.719 77.96,19.348 115.83,32.981 9.03,3.254 18.26,5.867 27.2,9.523 11.06,4.531 20.43,12.395 32.04,15.727 1.38,0.394 1.86,0.648 4.17,0.668"
         style="fill:#e10078;fill-opacity:1;fill-rule:nonzero;stroke:none"
         id="path52" /><path
         d="m 1262.52,1265.99 c -2.65,-23.64 -1.11,-47.19 1.28,-70.75 2.19,-21.63 9.74,-42.69 6.07,-64.97 -1.61,-9.75 -2.01,-10.44 -14.77,-10.71 -8.2,-0.18 -8.59,4.91 -8.87,10.92 -1.54,32.89 -8.91,64.72 -18.39,96.05 -9.04,29.89 -18.7,59.6 -28.52,89.24 -3.21,9.7 0.88,18.01 3.93,26.22 15.74,42.37 35.7,82.49 65.59,116.97 9.25,10.68 15.06,10.74 23.84,-0.16 25.8,-32.05 44.05,-68.02 55.07,-107.64 2.51,-8.99 4.52,-18.11 6.71,-27.2 1.61,-6.71 0.15,-12.62 -4.4,-17.92 -26.9,-31.3 -46.87,-66.81 -63.53,-104.35 -1.69,-3.8 -2.74,-10.25 -7.2,-9.86 -4.94,0.42 -11.63,90.63 -11.01,96.21 -4.23,-7.22 -5.04,-14.63 -5.8,-22.05"
         style="fill:#e10078;fill-opacity:1;fill-rule:nonzero;stroke:none"
         id="path54" /><path
         d="m 1470.89,1125.7 c -17.06,-15.57 -32.72,-32.47 -47.87,-49.88 -2.64,-3.02 -4.82,-10.12 -10.6,-5.9 -4.92,3.58 0.02,7.87 1.98,11.35 26.31,46.86 50.87,94.59 71.76,144.14 3.74,8.86 6.9,17.98 10.23,27.02 4.48,12.18 14.57,18.46 25.19,24.28 32.19,17.63 66.63,29.7 101.38,40.96 14.94,4.84 21.29,0.07 22.38,-15.57 1.35,-19.42 -4.72,-37.45 -9.4,-55.81 -6.36,-24.95 -14.53,-49.26 -24.86,-72.84 -11.34,-25.88 -31.65,-40.59 -58.2,-48.94 -23.74,-7.46 -45.48,-19.73 -66.39,-33.12 -17.42,-11.15 -34.29,-23.15 -51.39,-34.81 -2.38,-1.62 -4.78,-4.4 -7.66,-1.71 -3.35,3.13 -0.12,5.92 1.49,8.44 11.49,18.01 25.08,34.36 39.71,49.87 13.28,14.35 28.65,26.59 41.24,41.21 -15.08,-6.39 -27.27,-17.22 -38.99,-28.69"
         style="fill:#e10078;fill-opacity:1;fill-rule:nonzero;stroke:none"
         id="path56" /><path
         d="m 572.523,243.262 c -28.503,44.027 -59.367,86.449 -91.668,127.726 24.833,9.082 48.903,18.012 70.094,26.082 15.59,5.95 16.715,16.328 15.008,30.168 -12.93,104.774 -54.973,196.95 -117.73,280.887 -13.762,18.406 -28.743,11.816 -45.446,4.789 -38.246,-16.09 -76.668,-31.82 -114.816,-48.129 l -0.027,0.039 L 57.0195,578.684 0,561.043 208.871,260.301 l 152.004,62.07 c 18.727,-24.601 37.496,-49.16 56.281,-73.711 18.746,-24.5 37.524,-48.969 56.157,-73.551 14.695,-19.39 41.558,-18.308 71.074,-0.398 35.554,21.578 38.539,52.48 28.136,68.551"
         style="fill:#82b623;fill-opacity:1;fill-rule:nonzero;stroke:none"
         id="path58" /></g></g></svg>
